<svg width="39" height="47" viewBox="0 0 39 47" fill="none" xmlns="http://www.w3.org/2000/svg">
<path class="tgo-color-stroke"
      d="M13.625 13.75V7.875C13.6296 6.31828 14.2501 4.82665 15.3509 3.72588C16.4517 2.62511 17.9433 2.00465 19.5 2V2C21.0567 2.00465 22.5483 2.62511 23.6491 3.72588C24.7499 4.82665 25.3704 6.31828 25.375 7.875V13.75"
      stroke="#1e8a73" stroke-width="2" stroke-miterlimit="10" stroke-linecap="square"></path>
<path class="tgo-color-stroke"
      d="M33.2083 45.0833H5.79167C4.7529 45.0833 3.75668 44.6707 3.02216 43.9361C2.28765 43.2016 1.875 42.2054 1.875 41.1666V17.6666C1.8812 15.591 2.70849 13.6022 4.17618 12.1345C5.64387 10.6668 7.63271 9.83951 9.70833 9.83331H29.2917C31.3673 9.83951 33.3561 10.6668 34.8238 12.1345C36.2915 13.6022 37.1188 15.591 37.125 17.6666V41.1666C37.125 42.2054 36.7124 43.2016 35.9778 43.9361C35.2433 44.6707 34.2471 45.0833 33.2083 45.0833Z"
      stroke="#1e8a73" stroke-width="2" stroke-miterlimit="10" stroke-linecap="square"></path>
<path class="tgo-color-stroke"
      d="M13.625 24.5208H25.375C26.4138 24.5208 27.41 24.9335 28.1445 25.668C28.879 26.4025 29.2917 27.3987 29.2917 28.4375V39.2083H9.70834V28.4375C9.70834 27.3987 10.121 26.4025 10.8555 25.668C11.59 24.9335 12.5862 24.5208 13.625 24.5208V24.5208Z"
      stroke="#1e8a73" stroke-width="2" stroke-miterlimit="10" stroke-linecap="square"></path>
</svg>