<svg width="44" height="44" viewBox="0 0 44 44" fill="none" xmlns="http://www.w3.org/2000/svg">
<path class="tgo-color-stroke"
      d="M33.75 4.62099C35.5809 2.79005 39.9215 1.41755 41.7525 3.24755C43.5834 5.07755 42.21 9.41912 40.379 11.2501L35.2228 16.4063L26.9531 24.676L20.6915 30.9376L6.29905 39.9938C6.1192 40.107 5.90623 40.1557 5.69505 40.132C5.48387 40.1083 5.28701 40.0136 5.13674 39.8633C4.98647 39.713 4.89172 39.5162 4.86801 39.305C4.8443 39.0938 4.89304 38.8808 5.00624 38.701L11.5312 28.3285L14.0625 24.3085L33.75 4.62099Z"
      stroke="#1e8a73" stroke-width="2" stroke-miterlimit="10"></path>
<path class="tgo-color-stroke" d="M11.5331 28.3284L4.6875 27.1875L2.8125 29.0625L7.88156 34.1316" stroke="#1e8a73"
      stroke-width="2" stroke-miterlimit="10"></path>
<path class="tgo-color-stroke" d="M10.8684 37.1185L15.9375 42.1875L17.8125 40.3125L16.6716 33.4669" stroke="#1e8a73"
      stroke-width="2" stroke-miterlimit="10"></path>
<path class="tgo-color-stroke" d="M26.9531 24.6759L37.5 41.25L41.25 37.5L35.2228 16.4062" stroke="#1e8a73"
      stroke-width="2" stroke-miterlimit="10"></path>
<path class="tgo-color-stroke" d="M16.8403 15.8306L20.3241 18.0469L28.5937 9.7772L22.3172 7.98376" stroke="#1e8a73"
      stroke-width="2" stroke-miterlimit="10" stroke-linecap="square"></path>
<path class="tgo-color-stroke"
      d="M15.6394 9.0769C16.4305 8.28573 16.875 7.21266 16.875 6.09378C16.875 4.97489 16.4305 3.90182 15.6394 3.11065C14.8482 2.31948 13.7751 1.875 12.6562 1.875C11.5374 1.875 10.4643 2.31948 9.67312 3.11065L9.375 3.40878L9.07687 3.11065C8.2857 2.31948 7.21263 1.875 6.09375 1.875C4.97486 1.875 3.90179 2.31948 3.11062 3.11065C2.31945 3.90182 1.87497 4.97489 1.87497 6.09378C1.87497 7.21266 2.31945 8.28573 3.11062 9.0769L3.40875 9.37503L9.375 15.3413L15.3412 9.37503L15.6394 9.0769Z"
      stroke="#1e8a73" stroke-width="2" stroke-miterlimit="10" stroke-linecap="square"></path>
</svg>