<svg width="46" height="46" viewBox="0 0 46 46" fill="none" xmlns="http://www.w3.org/2000/svg">
    <path class="tgo-color-stroke"
          d="M10.9154 5.72217C11.938 6.70245 12.7395 7.88978 13.2662 9.20475C13.9203 9.66654 14.4407 10.2931 14.7746 11.0208C14.9762 11.8078 14.9831 12.6321 14.7947 13.4224C14.7947 13.4224 15.8125 16.4114 15.3333 17.25C14.8542 18.0885 12.8177 18.628 12.8177 18.628C12.5412 19.0998 12.1693 19.5087 11.7257 19.8285C11.2821 20.1483 10.7767 20.372 10.2417 20.4853C9.60771 20.5205 9.01317 20.8043 8.58707 21.275C8.16098 21.7458 7.93769 22.3656 7.96566 23C7.96566 24.6176 9.58333 27.253 9.58333 27.253C9.58333 27.253 11.2604 28.0734 11.5 28.6723C11.6805 29.3232 11.7881 29.992 11.821 30.6666C11.821 30.6666 13.4167 33.4822 12.5177 35.0989C12.2302 35.6145 10.9001 35.9978 10.9001 35.9978L9.0342 38.7962"
          stroke="#1e8a73" stroke-width="2" stroke-miterlimit="10"></path>
    <path class="tgo-color-stroke"
          d="M39.6386 10.0501C37.829 10.8057 35.9579 11.4043 34.0458 11.8393C34.0458 11.8393 31.4458 14.7334 29.7332 14.4938C28.0207 14.2543 26.289 12.3376 26.289 12.3376C26.289 12.3376 26.4136 8.80518 25.875 8.62502C25.3364 8.44485 23.8989 9.40318 23 8.68443C22.1011 7.96568 22.6167 5.94168 22.6167 5.94168C22.6167 5.94168 20.6607 5.33218 20.4211 4.67285C20.1815 4.01351 21.1332 2.54631 21.3143 1.98376"
          stroke="#1e8a73" stroke-width="2" stroke-miterlimit="10"></path>
    <path class="tgo-color-stroke"
          d="M38.4531 24.3781C38.9323 25.5166 37.5533 28.4222 36.4167 28.9896C35.2531 29.5177 34.2389 30.3264 33.465 31.3432C33.0453 32.0026 32.4942 34.7204 31.1171 35.2599C29.74 35.7995 26.474 38.8729 24.7375 38.3937C23.001 37.9145 23 33.7812 24.1979 31.924C24.9129 30.8152 24.0781 28.3896 24.0178 27.5521C23.9574 26.7145 21.4427 25.1562 21.4418 24.3177C21.4418 23 24.3168 19.526 24.3168 19.526C25.3047 19.1697 26.3417 18.9677 27.3911 18.9271C28.1176 19.1915 28.8137 19.5327 29.4678 19.9448C30.7345 20.0395 31.9832 20.3012 33.1814 20.723L34.5594 21.9803C34.5594 21.9803 37.974 23.2396 38.4531 24.3781Z"
          stroke="#1e8a73" stroke-width="2" stroke-miterlimit="10"></path>
    <path class="tgo-color-stroke"
          d="M23 44.0833C34.644 44.0833 44.0834 34.644 44.0834 23C44.0834 11.356 34.644 1.91663 23 1.91663C11.356 1.91663 1.91669 11.356 1.91669 23C1.91669 34.644 11.356 44.0833 23 44.0833Z"
          stroke="#1e8a73" stroke-width="2" stroke-miterlimit="10" stroke-linecap="square"></path>
</svg>