<svg width="60" height="60" viewBox="0 0 60 60" fill="none" xmlns="http://www.w3.org/2000/svg">
  <circle class="tgo-color-stroke" cx="30" cy="30" r="29.8" stroke="#1e8a73" stroke-width="0.4"></circle>
  <circle class="tgo-color" cx="30" cy="30" r="22" fill="#1e8a73"></circle>
  <path fill-rule="evenodd" clip-rule="evenodd" d="M30 40C33.375 40 39 33.7981 39 28.8889C39 23.9797 34.9706 20 30 20C25.0294 20 21 23.9797 21 28.8889C21 33.7981 26.625 40 30 40ZM30 32.5C31.6569 32.5 33.5 30.6569 33.5 29C33.5 27.3431 31.6569 25.5 30 25.5C28.3431 25.5 26.5 27.3431 26.5 29C26.5 30.6569 28.3431 32.5 30 32.5Z" fill="white"></path>
</svg>