<svg width="60" height="60" viewBox="0 0 60 60" fill="none" xmlns="http://www.w3.org/2000/svg">
  <circle class="tgo-color-stroke" cx="30" cy="30" r="29.8" stroke="#1e8a73" stroke-width="0.4"></circle>
  <circle class="tgo-color" cx="30" cy="30" r="22" fill="#1e8a73"></circle>
  <g clip-path="url(#clip0_1597_12221)">
    <path d="M38.8415 24.5759L33.3825 29.9998L38.8415 35.4237C38.9402 35.2174 39.0001 34.9894 39.0001 34.7459V25.2537C39.0001 25.0102 38.9402 24.7822 38.8415 24.5759Z" fill="white"></path>
    <path d="M37.4181 23.6719H22.5822C22.3387 23.6719 22.1107 23.7317 21.9044 23.8304L28.8816 30.7725C29.4986 31.3894 30.5018 31.3894 31.1187 30.7725L38.0959 23.8304C37.8896 23.7317 37.6617 23.6719 37.4181 23.6719Z" fill="white"></path>
    <path d="M21.1586 24.5759C21.0599 24.7822 21 25.0102 21 25.2537V34.7459C21 34.9894 21.0599 35.2174 21.1586 35.4237L26.6176 29.9998L21.1586 24.5759Z" fill="white"></path>
    <path d="M32.6369 30.7458L31.8644 31.5183C30.8365 32.5463 29.1638 32.5463 28.1359 31.5183L27.3634 30.7458L21.9044 36.1697C22.1107 36.2684 22.3387 36.3283 22.5822 36.3283H37.4181C37.6617 36.3283 37.8896 36.2684 38.0959 36.1697L32.6369 30.7458Z" fill="white"></path>
  </g>
  <defs>
    <clipPath id="clip0_1597_12221">
      <rect width="18" height="18" fill="white" transform="translate(21 21)"></rect>
    </clipPath>
  </defs>
</svg>