<svg width="60" height="60" viewBox="0 0 60 60" fill="none" xmlns="http://www.w3.org/2000/svg">
<circle class="tgo-color-stroke" cx="30" cy="30" r="29.8" stroke="#1e8a73" stroke-width="0.4"></circle>
<circle class="tgo-color" cx="30" cy="30" r="22" fill="#1e8a73"></circle>
<g clip-path="url(#clip0_1597_12223)">
  <path d="M38.5102 34.2102L35.9983 31.6982C35.1012 30.8011 33.576 31.16 33.2172 32.3262C32.948 33.1337 32.0509 33.5822 31.2435 33.4028C29.4493 32.9542 27.027 30.6217 26.5785 28.7377C26.3093 27.9303 26.8476 27.0331 27.655 26.764C28.8213 26.4052 29.1801 24.8801 28.283 23.9829L25.771 21.471C25.0533 20.843 23.9768 20.843 23.3488 21.471L21.6443 23.1755C19.9397 24.9698 21.8237 29.7246 26.0402 33.941C30.2567 38.1575 35.0114 40.1313 36.8057 38.337L38.5102 36.6324C39.1383 35.9147 39.1383 34.8382 38.5102 34.2102Z" fill="white"></path>
</g>
<defs>
  <clipPath id="clip0_1597_12223">
    <rect width="18" height="18" fill="white" transform="translate(21 21)"></rect>
  </clipPath>
</defs>
</svg>