<svg width="319" height="219" viewBox="0 0 319 219" fill="none" xmlns="http://www.w3.org/2000/svg">
<g opacity="0.8">
<path d="M199.768 97.8984C199.691 97.8367 199.628 97.7582 199.585 97.6687C199.542 97.5793 199.52 97.4812 199.52 97.3819L200.211 84.9156L194.236 81.247C193.787 80.9748 193.397 80.616 193.087 80.1915C192.777 79.767 192.553 79.2851 192.43 78.7736C192.306 78.262 192.285 77.731 192.366 77.211C192.448 76.6911 192.631 76.1925 192.906 75.744L195.158 72.0219C195.712 71.1145 196.601 70.4644 197.632 70.2141C198.662 69.9638 199.749 70.1335 200.655 70.6863L200.974 70.8821L202.375 45.2728L174.003 30.5804C172.518 29.6723 171.227 28.4777 170.204 27.0655C169.181 25.6532 168.448 24.0514 168.045 22.3526L167.939 21.8718L164.108 15.7633C163.474 14.7367 163.137 13.5523 163.137 12.344C163.137 11.1356 163.474 9.95122 164.108 8.92461V8.92461C164.736 7.88782 165.64 7.04813 166.718 6.50049C167.796 5.95286 169.005 5.71916 170.208 5.82586L177.301 6.44919C179.059 5.94576 180.902 5.81563 182.712 6.06706C184.523 6.31849 186.261 6.94598 187.817 7.90954L213.954 26.4487L235.978 13.4837L235.658 13.2878C234.755 12.7313 234.108 11.8379 233.858 10.8032C233.609 9.76854 233.778 8.67683 234.328 7.76703L236.58 4.04496C237.138 3.14113 238.027 2.49416 239.056 2.24417C240.085 1.99417 241.17 2.16128 242.077 2.70928L248.053 6.37793L258.693 0.073584C258.783 0.0252568 258.883 -4.20327e-06 258.985 -4.20775e-06C259.087 -4.21224e-06 259.188 0.0252567 259.278 0.073584L269.421 5.32721C269.517 5.38074 269.598 5.45776 269.657 5.55112C269.716 5.64448 269.751 5.75117 269.758 5.86145C269.784 5.96668 269.784 6.07683 269.758 6.18206C269.699 6.27097 269.62 6.34429 269.527 6.39576L264.314 9.3164L260.572 14.0358L263.268 15.6921C263.335 15.7339 263.394 15.7889 263.441 15.8537C263.487 15.9185 263.521 15.992 263.539 16.0698C263.557 16.1476 263.559 16.2282 263.546 16.3071C263.533 16.3859 263.505 16.4613 263.463 16.5291L263.161 17.0277L265.502 18.4703C265.895 18.7169 266.177 19.1085 266.287 19.5613C266.396 20.0141 266.324 20.4919 266.087 20.8923L262.736 26.4131C262.49 26.8084 262.1 27.0913 261.649 27.2012C261.198 27.311 260.723 27.2391 260.324 27.0008L257.983 25.5583L257.682 26.0569C257.597 26.1938 257.463 26.2924 257.308 26.3322C257.153 26.3721 256.988 26.35 256.848 26.2706L252.859 23.813L237.485 43.2426L260.36 59.5912L275.343 53.3225L281.762 56.6349L271.708 67.8724L275.822 72.663L271.619 79.5908L265.608 77.9345L260.289 92.0214L254.419 87.8185L253.107 71.5589L227.661 58.3446L217.997 81.2292L222.004 83.6868C222.139 83.7684 222.237 83.8997 222.277 84.0528C222.317 84.206 222.295 84.3686 222.217 84.506L221.898 85.0225L224.256 86.465C224.642 86.7142 224.917 87.1039 225.023 87.5522C225.129 88.0005 225.057 88.4726 224.824 88.8692L221.472 94.39C221.227 94.7806 220.84 95.0601 220.394 95.1698C219.947 95.2794 219.476 95.2105 219.079 94.9777L216.72 93.553L216.419 94.0517C216.377 94.1197 216.322 94.1788 216.258 94.2255C216.193 94.2722 216.12 94.3057 216.043 94.3239C215.965 94.3421 215.885 94.3448 215.806 94.3317C215.728 94.3186 215.653 94.2899 215.585 94.2475L212.89 92.6091L210.425 98.0943L210.23 104.096C210.22 104.201 210.19 104.304 210.142 104.399C210.077 104.493 209.992 104.572 209.893 104.63C209.798 104.683 209.692 104.711 209.583 104.711C209.474 104.711 209.368 104.683 209.273 104.63L199.768 97.8984ZM246.741 7.07251L241.421 3.76001C240.789 3.37136 240.028 3.25059 239.307 3.42419C238.585 3.59779 237.962 4.05162 237.573 4.68611L235.304 8.40818C234.923 9.04707 234.808 9.8108 234.984 10.5341C235.16 11.2574 235.612 11.882 236.244 12.2727L237.112 12.807L241.971 9.93973L246.741 7.07251ZM260.803 25.9678C260.926 26.0412 261.072 26.0636 261.211 26.0304C261.35 25.9971 261.471 25.9108 261.548 25.7897L264.899 20.2512C264.937 20.1907 264.964 20.1231 264.975 20.0523C264.987 19.9816 264.985 19.9092 264.968 19.8394C264.952 19.7695 264.922 19.7038 264.879 19.646C264.837 19.5883 264.783 19.5397 264.722 19.5032L262.381 18.0606L258.444 24.5253L260.803 25.9678ZM256.795 24.9171L261.973 16.4044L259.668 14.9975L253.444 22.8691L256.795 24.9171ZM252.078 22.6554L259.047 13.7509L263.268 8.40818C263.318 8.34574 263.378 8.29166 263.445 8.24791L267.789 5.82586L258.923 1.2311L242.964 10.5987L237.272 13.9646L214.858 27.1611L236.385 42.4056L252.078 22.6554ZM200.034 71.7548C199.401 71.3661 198.641 71.2454 197.92 71.419C197.198 71.5926 196.575 72.0464 196.186 72.6809L193.934 76.4029C193.547 77.0385 193.427 77.8022 193.6 78.5266C193.773 79.2511 194.225 79.8771 194.856 80.2675L200.282 83.58L200.584 77.9345L200.903 72.2712L200.034 71.7548ZM170.084 7.03686C169.103 6.93973 168.114 7.12615 167.234 7.57415C166.355 8.02215 165.621 8.71311 165.119 9.56576V9.56576C164.594 10.3999 164.316 11.3663 164.316 12.3529C164.316 13.3395 164.594 14.3059 165.119 15.14L167.655 19.2004L167.655 19.0223C167.655 18.5573 167.691 18.0929 167.761 17.6332C167.744 17.4972 167.744 17.3596 167.761 17.2236C167.832 16.7003 167.938 16.1826 168.08 15.6742L168.08 15.5318C168.222 15.0606 168.388 14.5969 168.577 14.1427L168.754 13.7687C168.967 13.2701 169.216 12.788 169.499 12.3261C169.783 11.8631 170.102 11.4179 170.421 10.9905L170.687 10.6699C171.005 10.2908 171.343 9.92828 171.698 9.58359L171.787 9.49451C172.18 9.13739 172.595 8.80435 173.028 8.49721L173.347 8.26568C173.734 7.99898 174.137 7.75517 174.553 7.53551C174.596 7.49953 174.644 7.4696 174.695 7.44649L170.084 7.03686ZM177.567 7.64236C174.676 8.48913 172.208 10.3961 170.652 12.9851C169.086 15.5716 168.542 18.6531 169.127 21.6224L169.233 22.1211C169.978 25.2353 171.923 27.9254 174.641 29.6009L203.261 44.4536L227.431 56.9199L264.863 76.3673L266.495 73.6782C262.062 70.9474 257.629 68.2286 253.196 65.5216C252.81 65.2752 252.533 64.8885 252.425 64.4424C252.316 63.9963 252.383 63.5251 252.612 63.1274C252.841 62.7298 253.214 62.4363 253.653 62.3083C254.092 62.1804 254.564 62.2278 254.969 62.4407L268.286 70.5794L269.864 67.9793L213.546 27.7487L213.351 27.6241L187.355 8.90684C185.914 8.01822 184.301 7.44475 182.624 7.22382C180.947 7.00288 179.242 7.13945 177.62 7.62459L177.567 7.64236ZM279.67 56.9911L275.131 54.6403L261.548 60.3214L270.591 66.9998L270.591 66.8573L270.68 66.9642L279.67 56.9911ZM270.91 78.1838L274.191 72.8411L270.839 68.941L269.403 71.3274C269.81 71.5777 270.101 71.9801 270.212 72.446C270.324 72.9119 270.246 73.4031 269.997 73.8117C269.748 74.2203 269.347 74.5126 268.883 74.6245C268.419 74.7364 267.93 74.6587 267.523 74.4083L266.016 76.8838L270.91 78.1838ZM255.377 87.0883L259.526 90.0624L264.296 77.5961L264.154 77.5961L264.154 77.4715L254.118 72.4493L255.377 87.0883ZM219.504 93.8914C219.629 93.9632 219.777 93.9829 219.916 93.9462C220.056 93.9096 220.175 93.8195 220.249 93.6955L223.618 88.1747C223.656 88.1118 223.682 88.0419 223.692 87.969C223.703 87.8962 223.699 87.8219 223.681 87.7505C223.663 87.6792 223.631 87.6121 223.587 87.5535C223.542 87.4948 223.487 87.4456 223.423 87.4089L221.082 85.9842L217.146 92.4489L219.504 93.8914ZM215.514 92.8407L220.675 84.328L217.323 82.2621L216.933 83.1169L213.192 91.4337L215.514 92.8407ZM209.024 97.8628L209.024 97.6491L211.808 91.4159L216.436 81.1579L226.367 57.8103L205.939 47.1249L203.527 45.8605L202.091 71.9329L201.719 78.451L200.708 97.0792L208.829 102.885L209.024 97.8628Z" fill="#203226"/>
<path d="M36.6307 170.916C36.5532 170.854 36.4906 170.775 36.4477 170.686C36.4047 170.596 36.3823 170.498 36.3824 170.399L37.074 157.933L31.0982 154.264C30.6496 153.992 30.2591 153.633 29.9492 153.209C29.6393 152.784 29.416 152.302 29.2924 151.791C29.1688 151.279 29.1472 150.748 29.2289 150.228C29.3105 149.708 29.4939 149.21 29.7683 148.761L32.0203 145.039C32.5744 144.132 33.4639 143.481 34.4942 143.231C35.5244 142.981 36.6114 143.151 37.5173 143.703L37.8365 143.899L39.2373 118.29L10.8656 103.597C9.38045 102.689 8.08924 101.495 7.06658 100.083C6.04392 98.6703 5.31006 97.0685 4.90751 95.3697L4.80112 94.8889L0.970982 88.7804C0.336336 87.7538 5.89841e-07 86.5694 5.37249e-07 85.3611C4.84656e-07 84.1527 0.336336 82.9683 0.970982 81.9417V81.9417C1.59847 80.9049 2.50232 80.0652 3.58034 79.5176C4.65836 78.9699 5.86746 78.7362 7.07085 78.8429L14.1638 79.4663C15.9214 78.9629 17.7642 78.8327 19.5746 79.0841C21.3851 79.3356 23.1235 79.9631 24.6791 80.9266L50.8165 99.4658L72.8401 86.5008L72.5209 86.3049C71.6173 85.7484 70.9701 84.855 70.7208 83.8203C70.4716 82.7856 70.6406 81.6939 71.191 80.7841L73.443 77.062C74.0003 76.1582 74.8897 75.5112 75.9186 75.2613C76.9475 75.0113 78.0329 75.1784 78.94 75.7264L84.9158 79.395L95.5552 73.0907C95.6452 73.0423 95.7457 73.0171 95.8478 73.0171C95.9498 73.0171 96.0503 73.0423 96.1404 73.0907L106.283 78.3443C106.38 78.3978 106.461 78.4749 106.52 78.5682C106.579 78.6616 106.613 78.7683 106.62 78.8785C106.646 78.9838 106.646 79.0939 106.62 79.1991C106.562 79.2881 106.483 79.3614 106.39 79.4128L101.176 82.3335L97.4348 87.0529L100.13 88.7091C100.198 88.751 100.257 88.806 100.303 88.8708C100.35 88.9356 100.383 89.0091 100.401 89.0869C100.419 89.1647 100.422 89.2453 100.409 89.3242C100.396 89.403 100.367 89.4784 100.325 89.5462L100.024 90.0448L102.364 91.4873C102.758 91.7339 103.04 92.1256 103.149 92.5784C103.259 93.0312 103.187 93.509 102.95 93.9093L99.5982 99.4301C99.3527 99.8255 98.9626 100.108 98.5118 100.218C98.0609 100.328 97.5852 100.256 97.1866 100.018L94.8459 98.5753L94.5445 99.074C94.4599 99.2108 94.3259 99.3095 94.1706 99.3493C94.0152 99.3892 93.8505 99.3671 93.711 99.2877L89.7213 96.83L74.3473 116.26L97.2221 132.608L112.206 126.34L118.625 129.652L108.571 140.889L112.685 145.68L108.482 152.608L102.471 150.952L97.1511 165.038L91.2817 160.836L89.9695 144.576L64.5236 131.362L54.8595 154.246L58.867 156.704C59.002 156.785 59.0999 156.917 59.1397 157.07C59.1794 157.223 59.158 157.386 59.0798 157.523L58.7606 158.04L61.119 159.482C61.5049 159.731 61.7796 160.121 61.8854 160.569C61.9912 161.018 61.9199 161.49 61.6865 161.886L58.335 167.407C58.0897 167.798 57.703 168.077 57.2564 168.187C56.8097 168.297 56.3382 168.228 55.9412 167.995L53.5828 166.57L53.2814 167.069C53.2397 167.137 53.1849 167.196 53.1204 167.243C53.0558 167.289 52.9827 167.323 52.9053 167.341C52.8278 167.359 52.7475 167.362 52.669 167.349C52.5905 167.336 52.5154 167.307 52.4479 167.265L49.7526 165.626L47.2878 171.111L47.0927 177.113C47.0821 177.219 47.0521 177.321 47.0041 177.416C46.9392 177.51 46.8545 177.589 46.7558 177.647C46.6609 177.7 46.5541 177.728 46.4455 177.728C46.3369 177.728 46.2301 177.7 46.1352 177.647L36.6307 170.916ZM83.6036 80.0896L78.2839 76.7771C77.6511 76.3884 76.8907 76.2677 76.1694 76.4413C75.448 76.6149 74.8247 77.0687 74.436 77.7032L72.1663 81.4253C71.7856 82.0642 71.6707 82.8279 71.8466 83.5512C72.0225 84.2745 72.475 84.8991 73.1061 85.2898L73.975 85.8241L78.8336 82.9568L83.6036 80.0896ZM97.6654 98.9849C97.7882 99.0583 97.9346 99.0807 98.0737 99.0475C98.2127 99.0142 98.3334 98.9279 98.4101 98.8068L101.762 93.2682C101.8 93.2078 101.826 93.1402 101.838 93.0694C101.85 92.9987 101.848 92.9263 101.831 92.8564C101.814 92.7866 101.784 92.7209 101.742 92.6631C101.699 92.6054 101.646 92.5568 101.584 92.5202L99.2435 91.0777L95.3069 97.5424L97.6654 98.9849ZM93.6578 97.9342L98.8357 89.4215L96.5305 88.0146L90.3064 95.8862L93.6578 97.9342ZM88.941 95.6725L95.9098 86.768L100.13 81.4253C100.181 81.3628 100.24 81.3088 100.307 81.265L104.652 78.8429L95.7857 74.2482L79.8266 83.6157L74.1345 86.9817L51.7209 100.178L73.2479 115.423L88.941 95.6725ZM36.8966 144.772C36.2638 144.383 35.5034 144.262 34.7821 144.436C34.0608 144.61 33.4374 145.063 33.0488 145.698L30.7967 149.42C30.4097 150.056 30.2895 150.819 30.4623 151.544C30.6352 152.268 31.0871 152.894 31.7188 153.285L37.1449 156.597L37.4463 150.952L37.7656 145.288L36.8966 144.772ZM6.94677 80.0539C5.9653 79.9568 4.97661 80.1432 4.09703 80.5912C3.21745 81.0392 2.48355 81.7302 1.98168 82.5829V82.5829C1.45697 83.4169 1.17846 84.3833 1.17846 85.37C1.17846 86.3566 1.45697 87.323 1.98168 88.1571L4.51745 92.2175L4.51745 92.0394C4.51759 91.5743 4.55315 91.11 4.62384 90.6503C4.60659 90.5143 4.60659 90.3767 4.62384 90.2407C4.69431 89.7174 4.80095 89.1997 4.94301 88.6913L4.94301 88.5489C5.08483 88.0776 5.25054 87.614 5.43951 87.1598L5.61684 86.7857C5.82954 86.2872 6.07843 85.8051 6.36157 85.3432C6.64529 84.8802 6.9645 84.435 7.28369 84.0075L7.54966 83.687C7.86804 83.3079 8.2054 82.9454 8.56042 82.6007L8.64906 82.5116C9.04253 82.1545 9.45706 81.8214 9.89034 81.5143L10.2095 81.2828C10.597 81.0161 10.9996 80.7723 11.4153 80.5526C11.4584 80.5166 11.5061 80.4867 11.5571 80.4636L6.94677 80.0539ZM14.4298 80.6594C11.539 81.5062 9.07059 83.4132 7.51416 86.0021C5.94894 88.5887 5.40492 91.6702 5.98921 94.6395L6.0956 95.1382C6.84091 98.2524 8.78596 100.942 11.5039 102.618L40.1239 117.471L64.2931 129.937L101.726 149.384L103.357 146.695C98.9244 143.965 94.4913 141.246 90.0582 138.539C89.6722 138.292 89.396 137.906 89.2872 137.459C89.1784 137.013 89.2454 136.542 89.4743 136.145C89.7032 135.747 90.0762 135.453 90.5154 135.325C90.9547 135.197 91.4262 135.245 91.8314 135.458L105.148 143.596L106.727 140.996L50.4087 100.766L50.2136 100.641L24.218 81.9239C22.7761 81.0353 21.1639 80.4618 19.4866 80.2409C17.8092 80.02 16.1043 80.1565 14.483 80.6417L14.4298 80.6594ZM116.533 130.008L111.993 127.657L98.4101 133.338L107.454 140.017L107.454 139.874L107.542 139.981L116.533 130.008ZM107.773 151.201L111.053 145.858L107.702 141.958L106.266 144.344C106.672 144.595 106.963 144.997 107.075 145.463C107.186 145.929 107.109 146.42 106.86 146.829C106.61 147.237 106.21 147.53 105.746 147.642C105.282 147.754 104.793 147.676 104.386 147.425L102.879 149.901L107.773 151.201ZM92.2392 160.105L96.3886 163.079L101.159 150.613L101.017 150.613L101.017 150.489L90.9803 145.466L92.2392 160.105ZM56.3668 166.908C56.4917 166.98 56.6397 167 56.779 166.963C56.9182 166.927 57.0376 166.837 57.1115 166.713L60.4807 161.192C60.5189 161.129 60.5441 161.059 60.5549 160.986C60.5658 160.913 60.562 160.839 60.5438 160.768C60.5257 160.696 60.4934 160.629 60.4491 160.571C60.4047 160.512 60.3492 160.463 60.2856 160.426L57.9449 159.001L54.0083 165.466L56.3668 166.908ZM52.377 165.858L57.5371 157.345L54.1857 155.279L53.7956 156.134L50.0541 164.451L52.377 165.858ZM45.887 170.88L45.887 170.666L48.6709 164.433L53.2991 154.175L63.2292 130.827L42.8015 120.142L40.3899 118.878L38.9536 144.95L38.5812 151.468L37.5705 170.096L45.6919 175.902L45.887 170.88Z" fill="#203226"/>
<path d="M301.242 162.579L301.605 161.22C301.624 161.146 301.629 161.069 301.619 160.993C301.608 160.918 301.583 160.845 301.544 160.78C301.505 160.714 301.453 160.657 301.391 160.612C301.33 160.567 301.26 160.535 301.186 160.517C301.113 160.497 301.036 160.493 300.961 160.503C300.886 160.514 300.813 160.539 300.748 160.578C300.683 160.618 300.626 160.67 300.581 160.731C300.536 160.793 300.504 160.863 300.487 160.937C300.188 162.056 299.895 163.156 299.606 164.24C299.561 164.387 299.576 164.545 299.646 164.681C299.716 164.816 299.836 164.92 299.981 164.968C300.129 165.008 300.287 164.99 300.423 164.917C300.559 164.843 300.661 164.721 300.71 164.574L301.242 162.579ZM302.301 157.922C302.599 156.804 302.709 155.636 302.87 154.48C302.881 154.406 302.877 154.329 302.858 154.256C302.84 154.183 302.807 154.114 302.761 154.054C302.716 153.994 302.659 153.943 302.594 153.905C302.529 153.867 302.457 153.843 302.382 153.833C302.308 153.822 302.232 153.826 302.159 153.845C302.086 153.864 302.018 153.897 301.958 153.942C301.898 153.988 301.847 154.045 301.809 154.111C301.772 154.176 301.747 154.248 301.737 154.323C301.581 155.461 301.39 156.589 301.169 157.692C301.143 157.843 301.176 157.998 301.263 158.125C301.349 158.251 301.481 158.339 301.631 158.369C301.704 158.384 301.78 158.384 301.853 158.37C301.926 158.356 301.996 158.327 302.058 158.286C302.12 158.244 302.174 158.191 302.216 158.128C302.257 158.066 302.286 157.996 302.301 157.922V157.922ZM299.634 167.917C299.673 167.778 299.658 167.63 299.595 167.5C299.531 167.371 299.422 167.27 299.289 167.216C299.144 167.166 298.986 167.176 298.849 167.242C298.711 167.309 298.604 167.426 298.552 167.57C298.232 168.425 297.905 169.24 297.529 170.098L297.269 170.728C297.237 170.797 297.22 170.872 297.218 170.948C297.215 171.024 297.228 171.1 297.256 171.171C297.283 171.241 297.324 171.306 297.376 171.361C297.429 171.416 297.492 171.459 297.561 171.489C297.699 171.547 297.854 171.549 297.993 171.493C298.131 171.437 298.243 171.328 298.302 171.191L298.579 170.565C298.95 169.724 299.278 168.909 299.621 167.969L299.634 167.917ZM303.348 151.106L303.371 151.02C303.472 149.886 303.565 148.712 303.619 147.547C303.624 147.396 303.571 147.249 303.471 147.137C303.371 147.024 303.232 146.954 303.083 146.941C303.006 146.936 302.929 146.946 302.857 146.972C302.784 146.997 302.717 147.037 302.661 147.089C302.604 147.141 302.558 147.204 302.526 147.274C302.494 147.344 302.477 147.42 302.475 147.497C302.409 148.641 302.342 149.784 302.225 150.914C302.211 151.065 302.258 151.214 302.355 151.33C302.451 151.446 302.589 151.519 302.739 151.532C302.863 151.525 302.982 151.478 303.076 151.396C303.171 151.315 303.237 151.205 303.263 151.083L303.348 151.106ZM296.871 174.216C296.903 174.089 296.89 173.954 296.835 173.835C296.78 173.716 296.685 173.62 296.568 173.563C296.501 173.526 296.428 173.504 296.353 173.497C296.277 173.49 296.201 173.499 296.129 173.523C296.057 173.547 295.991 173.585 295.935 173.636C295.879 173.687 295.833 173.749 295.802 173.818C295.299 174.807 294.753 175.822 294.173 176.827C294.136 176.893 294.113 176.964 294.104 177.039C294.095 177.113 294.1 177.188 294.12 177.261C294.14 177.333 294.174 177.4 294.22 177.459C294.266 177.518 294.323 177.567 294.388 177.604C294.521 177.68 294.678 177.7 294.826 177.661C294.974 177.621 295.1 177.525 295.179 177.393C295.759 176.388 296.31 175.356 296.821 174.332L296.871 174.216ZM303.7 144.213L303.737 144.075C303.73 142.931 303.728 141.768 303.675 140.593C303.669 140.442 303.603 140.3 303.493 140.198C303.383 140.095 303.236 140.041 303.086 140.047C303.011 140.048 302.937 140.064 302.868 140.094C302.8 140.125 302.738 140.169 302.687 140.225C302.636 140.28 302.597 140.345 302.573 140.416C302.548 140.488 302.538 140.563 302.543 140.638C302.567 141.788 302.591 142.937 302.585 144.06C302.581 144.136 302.594 144.211 302.621 144.282C302.648 144.352 302.689 144.417 302.742 144.471C302.794 144.524 302.857 144.567 302.927 144.595C302.997 144.624 303.072 144.638 303.147 144.636C303.262 144.62 303.369 144.569 303.453 144.489C303.537 144.409 303.593 144.304 303.615 144.19L303.7 144.213ZM293.463 180.176C293.493 180.057 293.485 179.931 293.44 179.816C293.395 179.701 293.315 179.604 293.211 179.537C293.084 179.457 292.931 179.43 292.784 179.463C292.638 179.496 292.51 179.587 292.43 179.714C291.824 180.676 291.185 181.628 290.515 182.554C290.432 182.681 290.4 182.835 290.424 182.985C290.449 183.135 290.529 183.271 290.648 183.364C290.776 183.452 290.933 183.485 291.085 183.457C291.237 183.429 291.371 183.342 291.459 183.214C292.129 182.288 292.777 181.301 293.383 180.339L293.463 180.176ZM303.455 137.288L303.506 137.099C303.409 135.948 303.295 134.793 303.159 133.65C303.151 133.575 303.128 133.502 303.091 133.436C303.055 133.37 303.005 133.311 302.946 133.264C302.887 133.218 302.819 133.183 302.746 133.163C302.673 133.143 302.597 133.137 302.522 133.147C302.447 133.155 302.375 133.179 302.309 133.215C302.243 133.252 302.185 133.302 302.138 133.361C302.091 133.421 302.057 133.489 302.037 133.562C302.017 133.635 302.012 133.711 302.021 133.787C302.161 134.912 302.28 136.05 302.36 137.196C302.373 137.347 302.446 137.485 302.561 137.582C302.676 137.679 302.825 137.726 302.975 137.712C303.07 137.685 303.156 137.632 303.224 137.559C303.292 137.487 303.339 137.397 303.36 137.3L303.455 137.288ZM289.485 185.798C289.512 185.69 289.509 185.577 289.476 185.47C289.442 185.364 289.381 185.268 289.297 185.195C289.235 185.121 289.156 185.064 289.067 185.029C288.977 184.993 288.881 184.98 288.785 184.991C288.69 185.002 288.599 185.036 288.52 185.09C288.441 185.145 288.376 185.218 288.332 185.304C287.637 186.186 286.921 187.081 286.175 187.95C286.126 188.007 286.088 188.073 286.065 188.145C286.041 188.216 286.031 188.292 286.037 188.367C286.042 188.442 286.063 188.516 286.097 188.583C286.131 188.65 286.178 188.71 286.235 188.759C286.351 188.855 286.5 188.902 286.65 188.891C286.8 188.88 286.939 188.811 287.04 188.699C287.791 187.813 288.529 186.905 289.245 186.01L289.485 185.798ZM302.624 130.427C302.66 130.358 302.68 130.282 302.683 130.204C302.492 129.064 302.283 127.92 302.052 126.789C302.039 126.715 302.011 126.644 301.97 126.581C301.929 126.517 301.876 126.463 301.813 126.421C301.751 126.378 301.681 126.349 301.608 126.333C301.534 126.318 301.458 126.318 301.385 126.333C301.233 126.363 301.1 126.453 301.014 126.582C300.928 126.71 300.896 126.868 300.926 127.02C301.161 128.135 301.374 129.261 301.553 130.379C301.564 130.453 301.588 130.525 301.626 130.589C301.664 130.654 301.714 130.71 301.774 130.756C301.833 130.801 301.901 130.834 301.973 130.852C302.046 130.871 302.121 130.875 302.195 130.865C302.281 130.826 302.356 130.767 302.414 130.693C302.472 130.619 302.511 130.531 302.529 130.439L302.624 130.427ZM284.988 191.023C285.015 190.926 285.016 190.823 284.99 190.726C284.965 190.628 284.914 190.539 284.843 190.468C284.789 190.414 284.724 190.373 284.654 190.345C284.583 190.317 284.508 190.304 284.432 190.306C284.356 190.307 284.281 190.325 284.212 190.356C284.143 190.388 284.081 190.433 284.03 190.488C283.242 191.309 282.436 192.125 281.555 192.883C281.449 192.993 281.388 193.139 281.384 193.292C281.381 193.445 281.435 193.594 281.537 193.708C281.589 193.762 281.651 193.805 281.719 193.835C281.788 193.865 281.861 193.881 281.936 193.882C282.011 193.884 282.085 193.87 282.154 193.843C282.224 193.815 282.287 193.774 282.341 193.721C283.176 192.932 283.985 192.099 284.834 191.258C284.889 191.198 284.932 191.129 284.962 191.053L284.988 191.023ZM301.248 123.678C301.298 123.595 301.324 123.5 301.322 123.403C301.035 122.275 300.744 121.164 300.385 120.035C300.337 119.889 300.236 119.768 300.102 119.694C299.969 119.62 299.812 119.6 299.664 119.638C299.52 119.686 299.399 119.787 299.325 119.922C299.252 120.056 299.232 120.213 299.27 120.361C299.599 121.464 299.895 122.558 300.22 123.678C300.237 123.752 300.269 123.822 300.313 123.884C300.357 123.946 300.413 123.998 300.478 124.038C300.542 124.078 300.614 124.104 300.689 124.116C300.764 124.127 300.841 124.123 300.914 124.104C300.974 124.05 301.022 123.984 301.054 123.91C301.087 123.836 301.103 123.756 301.102 123.675L301.248 123.678ZM280.044 195.795C280.067 195.702 280.066 195.605 280.043 195.512C280.02 195.419 279.974 195.333 279.911 195.262C279.806 195.152 279.665 195.087 279.515 195.077C279.364 195.067 279.216 195.114 279.099 195.209C278.256 195.959 277.362 196.696 276.477 197.398C276.362 197.496 276.289 197.634 276.273 197.784C276.257 197.934 276.299 198.085 276.39 198.204C276.436 198.264 276.492 198.314 276.557 198.352C276.622 198.389 276.694 198.414 276.768 198.423C276.842 198.433 276.917 198.428 276.99 198.408C277.062 198.388 277.129 198.355 277.189 198.309C278.095 197.594 278.994 196.84 279.858 196.077C279.936 196.011 279.991 195.923 280.017 195.825L280.044 195.795ZM299.227 117.013C299.254 116.901 299.247 116.783 299.207 116.675C298.838 115.581 298.43 114.494 298.018 113.424C297.992 113.351 297.951 113.284 297.899 113.227C297.846 113.171 297.782 113.125 297.711 113.094C297.641 113.063 297.564 113.047 297.487 113.046C297.41 113.046 297.333 113.061 297.262 113.092C297.193 113.12 297.13 113.162 297.077 113.215C297.024 113.268 296.982 113.331 296.953 113.4C296.924 113.47 296.909 113.544 296.909 113.619C296.909 113.694 296.924 113.769 296.953 113.838C297.365 114.908 297.779 115.904 298.112 117.063C298.166 117.204 298.273 117.319 298.41 117.384C298.547 117.448 298.703 117.457 298.846 117.408C298.93 117.38 299.006 117.332 299.068 117.269C299.129 117.205 299.175 117.128 299.2 117.042L299.227 117.013ZM274.557 200.053C274.578 199.97 274.58 199.884 274.565 199.8C274.549 199.716 274.515 199.637 274.466 199.567C274.422 199.507 274.366 199.456 274.303 199.417C274.239 199.378 274.168 199.353 274.094 199.341C274.021 199.33 273.945 199.333 273.873 199.351C273.801 199.369 273.733 199.401 273.672 199.446C272.767 200.087 271.792 200.783 270.849 201.359C270.718 201.438 270.623 201.564 270.583 201.712C270.544 201.86 270.563 202.017 270.638 202.151C270.675 202.217 270.725 202.276 270.785 202.323C270.845 202.37 270.913 202.405 270.987 202.424C271.06 202.444 271.137 202.449 271.213 202.438C271.288 202.428 271.36 202.402 271.426 202.363C272.4 201.74 273.375 201.043 274.293 200.424C274.362 200.381 274.421 200.325 274.468 200.258C274.514 200.191 274.546 200.115 274.562 200.035L274.557 200.053ZM296.702 110.581C296.737 110.456 296.727 110.323 296.674 110.205C296.206 109.138 295.694 108.097 295.2 107.061C295.163 106.994 295.113 106.935 295.053 106.888C294.993 106.841 294.924 106.807 294.85 106.787C294.777 106.767 294.7 106.762 294.625 106.773C294.549 106.784 294.477 106.809 294.412 106.849C294.283 106.924 294.189 107.048 294.15 107.193C294.111 107.338 294.131 107.492 294.205 107.623C294.704 108.642 295.185 109.73 295.667 110.745C295.742 110.874 295.866 110.969 296.01 111.008C296.154 111.046 296.308 111.026 296.438 110.952C296.501 110.916 296.556 110.868 296.6 110.81C296.644 110.752 296.675 110.686 296.693 110.615L296.702 110.581ZM268.709 203.807C268.739 203.657 268.715 203.5 268.643 203.365C268.562 203.237 268.436 203.145 268.29 203.105C268.144 203.066 267.989 203.083 267.855 203.153C266.878 203.72 265.866 204.278 264.864 204.801C264.735 204.876 264.641 205 264.602 205.145C264.564 205.29 264.583 205.444 264.657 205.575C264.736 205.701 264.859 205.792 265.002 205.831C265.145 205.869 265.297 205.852 265.428 205.782C266.469 205.251 267.549 204.712 268.48 204.114C268.587 204.04 268.668 203.932 268.709 203.807V203.807ZM293.553 104.424C293.591 104.277 293.573 104.121 293.505 103.986C292.933 102.966 292.339 101.958 291.736 100.984C291.658 100.853 291.532 100.757 291.384 100.718C291.237 100.678 291.081 100.698 290.948 100.772C290.819 100.848 290.725 100.972 290.686 101.117C290.647 101.262 290.667 101.416 290.741 101.547C291.327 102.515 291.908 103.502 292.468 104.5C292.546 104.632 292.672 104.727 292.819 104.767C292.966 104.806 293.123 104.787 293.256 104.712C293.333 104.697 293.406 104.665 293.469 104.618C293.532 104.572 293.585 104.511 293.622 104.442L293.553 104.424ZM262.531 206.938C262.569 206.808 262.56 206.669 262.508 206.545C262.43 206.414 262.304 206.318 262.157 206.278C262.009 206.239 261.853 206.258 261.72 206.333C260.697 206.795 259.64 207.248 258.579 207.645C258.441 207.703 258.329 207.812 258.268 207.95C258.208 208.088 258.202 208.245 258.253 208.387C258.278 208.459 258.317 208.525 258.368 208.581C258.419 208.637 258.482 208.682 258.551 208.713C258.62 208.744 258.695 208.76 258.771 208.76C258.847 208.76 258.922 208.745 258.992 208.715C260.074 208.305 261.062 207.834 262.193 207.382C262.3 207.363 262.399 207.314 262.48 207.242C262.561 207.169 262.62 207.075 262.651 206.971L262.531 206.938ZM289.854 98.5421C289.88 98.4619 289.887 98.3764 289.875 98.2928C289.862 98.2093 289.829 98.1299 289.78 98.0614C289.116 97.1084 288.448 96.1726 287.741 95.2449C287.696 95.1852 287.639 95.1351 287.574 95.0976C287.509 95.06 287.438 95.0357 287.364 95.026C287.289 95.0163 287.214 95.0215 287.142 95.0412C287.07 95.0608 287.002 95.0946 286.943 95.1407C286.821 95.2354 286.741 95.3745 286.721 95.5278C286.701 95.6811 286.742 95.8363 286.834 95.9596C287.516 96.8438 288.185 97.7795 288.836 98.7107C288.914 98.842 289.04 98.9377 289.187 98.9773C289.334 99.0169 289.491 98.9973 289.624 98.9227C289.703 98.8917 289.774 98.8448 289.835 98.7849C289.895 98.725 289.942 98.6534 289.974 98.5744L289.854 98.5421ZM256.124 209.418C256.158 209.315 256.155 209.203 256.116 209.102C256.069 208.957 255.966 208.835 255.831 208.764C255.695 208.694 255.537 208.679 255.391 208.723C254.323 209.081 253.225 209.412 252.14 209.692C252.067 209.71 251.999 209.744 251.939 209.789C251.879 209.835 251.828 209.892 251.79 209.957C251.753 210.022 251.728 210.094 251.718 210.169C251.708 210.244 251.713 210.32 251.733 210.393C251.775 210.539 251.87 210.662 252.001 210.739C252.131 210.815 252.285 210.838 252.432 210.803C253.542 210.493 254.657 210.166 255.751 209.852C255.856 209.832 255.953 209.782 256.031 209.708C256.109 209.635 256.165 209.54 256.192 209.436L256.124 209.418ZM285.679 93.0673C285.704 92.9764 285.707 92.8805 285.687 92.7881C285.667 92.6958 285.624 92.61 285.563 92.5384C284.825 91.6576 284.048 90.7848 283.262 89.9464C283.16 89.8362 283.018 89.7712 282.868 89.7654C282.719 89.7596 282.573 89.8136 282.462 89.9156C282.351 90.0207 282.285 90.1653 282.278 90.3185C282.272 90.4718 282.325 90.6215 282.427 90.7358C283.201 91.5524 283.96 92.4206 284.703 93.2841C284.751 93.3426 284.81 93.3909 284.877 93.4262C284.944 93.4614 285.017 93.4829 285.092 93.4894C285.167 93.4959 285.243 93.4873 285.315 93.464C285.387 93.4407 285.453 93.4033 285.51 93.354C285.627 93.2966 285.727 93.2087 285.798 93.0996L285.679 93.0673ZM249.495 211.211C249.541 211.133 249.565 211.044 249.564 210.953C249.533 210.805 249.445 210.676 249.319 210.594C249.193 210.511 249.039 210.483 248.892 210.514C247.766 210.745 246.644 210.96 245.535 211.122C245.462 211.132 245.39 211.157 245.327 211.196C245.263 211.234 245.207 211.285 245.163 211.346C245.12 211.407 245.089 211.476 245.073 211.549C245.056 211.622 245.055 211.698 245.069 211.771C245.079 211.845 245.104 211.917 245.141 211.981C245.179 212.046 245.229 212.103 245.289 212.148C245.348 212.193 245.416 212.226 245.489 212.245C245.561 212.263 245.636 212.268 245.71 212.257C246.84 212.082 247.979 211.872 249.123 211.645C249.235 211.633 249.341 211.588 249.428 211.517C249.515 211.446 249.58 211.351 249.615 211.243L249.495 211.211ZM280.984 88.0244C281.009 87.9271 281.009 87.8249 280.984 87.7276C280.958 87.6304 280.908 87.5414 280.839 87.4691C279.997 86.6773 279.142 85.8938 278.271 85.1188C278.215 85.0692 278.149 85.0313 278.078 85.0074C278.007 84.9835 277.931 84.9742 277.856 84.9798C277.781 84.9853 277.708 85.0057 277.641 85.0399C277.574 85.074 277.515 85.1212 277.466 85.1787C277.417 85.2355 277.379 85.3016 277.355 85.3731C277.331 85.4447 277.322 85.5204 277.328 85.5956C277.333 85.6708 277.353 85.7442 277.387 85.8115C277.421 85.8787 277.468 85.9386 277.526 85.9875C278.373 86.7319 279.229 87.5152 280.029 88.302C280.083 88.3553 280.148 88.3971 280.218 88.4249C280.289 88.4528 280.364 88.4661 280.44 88.4642C280.516 88.4622 280.59 88.4451 280.66 88.4136C280.729 88.3822 280.791 88.3371 280.842 88.2812C280.953 88.2388 281.045 88.1595 281.104 88.0567L280.984 88.0244ZM242.685 212.31L242.736 212.121C242.719 211.968 242.643 211.828 242.525 211.731C242.407 211.634 242.256 211.587 242.104 211.6C241.255 211.685 240.393 211.748 239.541 211.777L238.706 211.811C238.556 211.817 238.415 211.883 238.313 211.993C238.211 212.104 238.157 212.251 238.163 212.402C238.164 212.477 238.18 212.552 238.21 212.622C238.24 212.691 238.283 212.754 238.338 212.806C238.392 212.859 238.456 212.9 238.527 212.927C238.597 212.954 238.672 212.967 238.747 212.965L239.582 212.931C240.473 212.894 241.335 212.831 242.218 212.755C242.362 212.759 242.503 212.711 242.615 212.62C242.727 212.528 242.803 212.399 242.828 212.256L242.685 212.31ZM235.812 212.544L235.849 212.406C235.85 212.254 235.793 212.107 235.689 211.997C235.585 211.886 235.442 211.82 235.291 211.813C234.177 211.79 233.034 211.741 231.883 211.652C231.809 211.645 231.735 211.654 231.665 211.677C231.594 211.699 231.529 211.736 231.473 211.785C231.418 211.834 231.372 211.893 231.34 211.96C231.307 212.027 231.289 212.099 231.285 212.173C231.271 212.324 231.318 212.473 231.415 212.589C231.511 212.705 231.649 212.778 231.799 212.791C232.968 212.884 234.128 212.938 235.259 212.966C235.336 212.982 235.415 212.983 235.492 212.967C235.569 212.952 235.643 212.921 235.708 212.877C235.773 212.832 235.828 212.775 235.871 212.708C235.913 212.642 235.942 212.568 235.955 212.49L235.812 212.544ZM228.956 212.026L228.979 211.94C228.996 211.791 228.954 211.641 228.861 211.523C228.769 211.405 228.634 211.328 228.486 211.31C227.304 211.151 226.172 210.994 225.087 210.837C225.014 210.824 224.939 210.827 224.867 210.844C224.795 210.861 224.726 210.892 224.667 210.936C224.607 210.981 224.556 211.037 224.519 211.101C224.481 211.165 224.457 211.236 224.447 211.31C224.434 211.385 224.436 211.46 224.453 211.534C224.469 211.607 224.5 211.677 224.543 211.738C224.587 211.8 224.642 211.852 224.705 211.892C224.769 211.931 224.84 211.958 224.914 211.971C226.059 212.15 227.192 212.307 228.347 212.452C228.427 212.484 228.515 212.497 228.601 212.489C228.688 212.481 228.771 212.452 228.845 212.405C228.918 212.358 228.979 212.295 229.024 212.219C229.068 212.144 229.094 212.059 229.099 211.972L228.956 212.026ZM222.173 210.957C222.186 210.883 222.184 210.807 222.168 210.733C222.151 210.66 222.121 210.59 222.077 210.529C222.034 210.468 221.979 210.415 221.915 210.375C221.852 210.336 221.781 210.309 221.707 210.296C220.611 210.001 219.478 209.844 218.368 209.601C218.294 209.583 218.217 209.581 218.142 209.593C218.067 209.606 217.995 209.634 217.931 209.675C217.867 209.717 217.812 209.77 217.769 209.833C217.726 209.897 217.696 209.968 217.681 210.043C217.663 210.117 217.661 210.194 217.674 210.27C217.686 210.345 217.714 210.417 217.755 210.481C217.796 210.546 217.85 210.601 217.913 210.644C217.976 210.688 218.046 210.718 218.121 210.733C219.234 211.032 220.38 211.211 221.499 211.42C221.586 211.463 221.682 211.483 221.779 211.478C221.876 211.473 221.97 211.443 222.051 211.391C222.133 211.339 222.201 211.267 222.247 211.182C222.293 211.096 222.317 211 222.316 210.903L222.173 210.957ZM215.458 209.5C215.477 209.427 215.482 209.35 215.471 209.276C215.46 209.201 215.434 209.129 215.394 209.065C215.355 209.001 215.302 208.945 215.24 208.902C215.178 208.859 215.108 208.829 215.035 208.814C213.921 208.515 212.825 208.22 211.729 207.925C211.584 207.886 211.429 207.906 211.298 207.982C211.168 208.057 211.073 208.182 211.034 208.328V208.328C211.017 208.401 211.014 208.476 211.026 208.55C211.038 208.624 211.065 208.695 211.104 208.758C211.143 208.822 211.195 208.877 211.255 208.921C211.316 208.965 211.384 208.996 211.457 209.013C212.553 209.308 213.666 209.608 214.78 209.907C214.863 209.949 214.955 209.97 215.047 209.968C215.14 209.966 215.231 209.941 215.312 209.896C215.393 209.85 215.462 209.785 215.512 209.707C215.562 209.628 215.593 209.539 215.6 209.446L215.458 209.5ZM208.784 207.814C208.823 207.67 208.806 207.516 208.735 207.384C208.665 207.251 208.546 207.151 208.405 207.104C207.36 206.823 206.264 206.528 205.162 206.047C205.017 205.998 204.859 206.007 204.722 206.074C204.584 206.14 204.477 206.258 204.425 206.402C204.38 206.547 204.392 206.704 204.458 206.841C204.523 206.978 204.637 207.086 204.778 207.142C205.915 207.559 207.032 207.914 208.158 208.236C208.303 208.275 208.458 208.255 208.588 208.179C208.719 208.103 208.814 207.979 208.853 207.833L208.784 207.814ZM202.32 205.485C202.357 205.35 202.343 205.207 202.282 205.082C202.221 204.956 202.116 204.858 201.987 204.805C200.966 204.365 199.933 203.902 198.875 203.396C198.737 203.332 198.579 203.324 198.435 203.375C198.291 203.426 198.173 203.531 198.105 203.668C198.041 203.807 198.033 203.966 198.084 204.11C198.134 204.255 198.239 204.374 198.376 204.442C199.451 204.953 200.501 205.42 201.539 205.865C201.681 205.924 201.841 205.925 201.984 205.866C202.127 205.808 202.241 205.696 202.301 205.554L202.32 205.485ZM196.093 202.537C196.129 202.41 196.118 202.274 196.063 202.154C196.007 202.034 195.91 201.938 195.79 201.884C194.81 201.362 193.8 200.814 192.794 200.248C192.658 200.172 192.498 200.154 192.349 200.197C192.2 200.24 192.074 200.34 191.999 200.476C191.929 200.612 191.915 200.768 191.958 200.914C192.001 201.06 192.099 201.183 192.231 201.258C193.254 201.828 194.264 202.377 195.279 202.908C195.414 202.972 195.57 202.981 195.712 202.934C195.855 202.887 195.974 202.786 196.044 202.653L196.093 202.537ZM190.089 199.17C190.119 199.048 190.109 198.919 190.06 198.803C190.012 198.688 189.928 198.59 189.821 198.526C188.854 197.952 187.879 197.34 186.904 196.727C186.842 196.685 186.772 196.656 186.698 196.642C186.624 196.628 186.549 196.629 186.475 196.646C186.402 196.662 186.333 196.694 186.272 196.738C186.212 196.783 186.161 196.839 186.123 196.904C186.081 196.966 186.052 197.037 186.038 197.111C186.024 197.185 186.025 197.261 186.042 197.335C186.058 197.408 186.09 197.478 186.134 197.538C186.178 197.599 186.234 197.651 186.299 197.689C187.269 198.319 188.244 198.931 189.228 199.509C189.292 199.549 189.363 199.576 189.438 199.588C189.512 199.599 189.588 199.596 189.661 199.578C189.734 199.56 189.803 199.527 189.864 199.482C189.924 199.437 189.975 199.381 190.014 199.315L190.089 199.17ZM184.289 195.452C184.322 195.335 184.318 195.21 184.276 195.096C184.233 194.981 184.156 194.884 184.054 194.817C183.106 194.175 182.179 193.52 181.257 192.847C181.197 192.801 181.129 192.768 181.056 192.749C180.983 192.73 180.906 192.725 180.832 192.736C180.757 192.747 180.685 192.773 180.621 192.812C180.556 192.851 180.5 192.902 180.455 192.963C180.368 193.089 180.332 193.244 180.357 193.396C180.382 193.547 180.465 193.683 180.588 193.774C181.51 194.446 182.449 195.123 183.415 195.77C183.538 195.856 183.69 195.89 183.838 195.865C183.986 195.839 184.118 195.755 184.204 195.632L184.289 195.452ZM178.731 191.375C178.759 191.264 178.755 191.148 178.719 191.04C178.682 190.932 178.615 190.837 178.526 190.767C177.613 190.06 176.722 189.341 175.87 188.614C175.813 188.562 175.746 188.522 175.674 188.498C175.601 188.474 175.524 188.465 175.448 188.472C175.371 188.479 175.297 188.503 175.231 188.54C175.164 188.578 175.106 188.629 175.06 188.691C175.011 188.746 174.974 188.811 174.951 188.882C174.927 188.952 174.918 189.026 174.924 189.1C174.93 189.174 174.951 189.246 174.985 189.312C175.02 189.377 175.067 189.435 175.124 189.482C176.006 190.236 176.897 190.955 177.823 191.683C177.881 191.73 177.949 191.764 178.021 191.784C178.092 191.804 178.168 191.809 178.242 191.8C178.316 191.791 178.387 191.767 178.452 191.73C178.517 191.693 178.574 191.644 178.62 191.585L178.731 191.375ZM178.322 175.224C178.62 174.106 178.769 172.929 178.926 171.792C178.939 171.716 178.937 171.639 178.919 171.565C178.902 171.491 178.869 171.421 178.823 171.36C178.777 171.299 178.719 171.249 178.653 171.212C178.587 171.174 178.513 171.151 178.438 171.144C178.363 171.133 178.287 171.137 178.214 171.156C178.141 171.175 178.073 171.208 178.013 171.253C177.953 171.299 177.903 171.356 177.865 171.422C177.827 171.487 177.803 171.559 177.793 171.634C177.645 172.738 177.433 173.879 177.195 174.976C177.177 175.051 177.175 175.128 177.188 175.203C177.2 175.279 177.228 175.351 177.269 175.415C177.31 175.479 177.364 175.535 177.427 175.578C177.489 175.621 177.56 175.651 177.635 175.666C177.721 175.706 177.816 175.725 177.911 175.72C178.006 175.715 178.098 175.687 178.18 175.638C178.262 175.589 178.33 175.521 178.38 175.44C178.43 175.358 178.459 175.266 178.465 175.171L178.322 175.224ZM177.432 178.562C177.475 178.42 177.461 178.267 177.393 178.135C177.325 178.003 177.209 177.903 177.069 177.856C176.923 177.811 176.766 177.826 176.631 177.896C176.495 177.966 176.393 178.087 176.345 178.232C176.046 179.35 175.598 180.41 175.164 181.418C175.11 181.561 175.111 181.72 175.169 181.862C175.226 182.004 175.335 182.119 175.474 182.183C175.544 182.212 175.618 182.227 175.693 182.227C175.769 182.227 175.843 182.211 175.912 182.182C175.982 182.153 176.045 182.11 176.097 182.056C176.15 182.002 176.191 181.938 176.219 181.867C176.662 180.825 177.068 179.717 177.445 178.51L177.432 178.562ZM179.245 168.393L179.277 168.272C179.336 167.102 179.324 165.929 179.241 164.76C179.232 164.607 179.163 164.464 179.05 164.361C178.937 164.258 178.788 164.204 178.635 164.209C178.56 164.214 178.487 164.234 178.419 164.267C178.352 164.301 178.292 164.347 178.242 164.404C178.193 164.461 178.155 164.528 178.132 164.6C178.108 164.671 178.099 164.747 178.105 164.823C178.182 165.954 178.192 167.09 178.134 168.223C178.131 168.299 178.143 168.375 178.169 168.446C178.196 168.517 178.236 168.582 178.288 168.637C178.34 168.692 178.403 168.737 178.472 168.767C178.541 168.798 178.616 168.814 178.692 168.815C178.768 168.832 178.847 168.832 178.923 168.816C179 168.8 179.072 168.769 179.136 168.724C179.199 168.678 179.253 168.621 179.293 168.554C179.334 168.487 179.36 168.412 179.371 168.335L179.245 168.393ZM174.719 184.875C174.752 184.753 174.743 184.623 174.695 184.507C174.646 184.39 174.56 184.293 174.45 184.231C174.318 184.161 174.165 184.144 174.021 184.184C173.877 184.225 173.754 184.318 173.677 184.447C173.398 184.943 173.084 185.43 172.78 185.883C172.119 185.263 171.463 184.625 170.841 183.997C170.732 183.887 170.583 183.825 170.429 183.825C170.274 183.825 170.125 183.886 170.015 183.996C169.916 184.108 169.861 184.253 169.861 184.403C169.862 184.553 169.918 184.697 170.019 184.808C170.688 185.468 171.386 186.153 172.123 186.831L171.798 187.223C171.704 187.344 171.661 187.498 171.678 187.651C171.696 187.804 171.773 187.944 171.892 188.041C171.951 188.087 172.018 188.121 172.09 188.141C172.162 188.161 172.237 188.167 172.311 188.158C172.385 188.148 172.457 188.125 172.521 188.088C172.586 188.051 172.643 188.001 172.689 187.942L173.212 187.29L173.334 187.175C173.384 187.086 173.411 186.985 173.412 186.883C173.827 186.294 174.216 185.661 174.592 185.006L174.719 184.875ZM178.728 161.524C178.768 161.444 178.791 161.356 178.797 161.266C178.547 160.088 178.141 158.95 177.589 157.88C177.511 157.749 177.385 157.653 177.238 157.614C177.091 157.574 176.934 157.594 176.801 157.668C176.734 157.705 176.676 157.756 176.629 157.816C176.582 157.876 176.548 157.945 176.528 158.019C176.509 158.093 176.504 158.17 176.514 158.246C176.525 158.321 176.551 158.394 176.59 158.46C177.083 159.443 177.453 160.484 177.691 161.558C177.706 161.632 177.736 161.701 177.778 161.762C177.821 161.824 177.876 161.876 177.939 161.915C178.002 161.955 178.073 161.981 178.147 161.992C178.22 162.003 178.295 161.999 178.367 161.98C178.494 161.962 178.612 161.902 178.7 161.808C178.788 161.715 178.842 161.594 178.854 161.466L178.728 161.524ZM170.385 190.18C170.409 190.093 170.412 190.002 170.394 189.914C170.376 189.826 170.338 189.743 170.282 189.673C170.185 189.557 170.047 189.484 169.898 189.468C169.748 189.451 169.598 189.494 169.479 189.586C168.849 190.097 168.16 190.531 167.427 190.877C167.175 190.994 166.919 191.128 166.651 191.24C166.525 191.319 166.434 191.442 166.396 191.586C166.358 191.73 166.375 191.883 166.444 192.014C166.481 192.081 166.531 192.139 166.591 192.186C166.651 192.234 166.72 192.268 166.794 192.288C166.867 192.308 166.944 192.312 167.019 192.302C167.094 192.291 167.167 192.265 167.232 192.226C167.501 192.114 167.757 191.98 168.03 191.851C168.818 191.446 169.563 190.96 170.252 190.402C170.365 190.337 170.455 190.239 170.511 190.121L170.385 190.18ZM168.607 182.05C168.633 181.959 168.636 181.863 168.616 181.771C168.595 181.678 168.553 181.592 168.491 181.521C167.702 180.626 166.964 179.745 166.312 178.888C166.212 178.771 166.072 178.696 165.92 178.679C165.767 178.662 165.614 178.704 165.491 178.796C165.433 178.843 165.384 178.901 165.348 178.967C165.311 179.033 165.288 179.106 165.28 179.181C165.272 179.256 165.279 179.332 165.301 179.404C165.322 179.477 165.357 179.544 165.405 179.603C166.07 180.482 166.769 181.371 167.627 182.284C167.731 182.396 167.875 182.462 168.028 182.469C168.18 182.475 168.33 182.422 168.443 182.319C168.515 182.293 168.579 182.249 168.629 182.192C168.68 182.135 168.715 182.066 168.733 181.991L168.607 182.05ZM175.289 155.768C175.321 155.646 175.312 155.516 175.264 155.4C175.215 155.283 175.129 155.186 175.02 155.124C174.65 154.914 174.255 154.752 173.845 154.642C173.016 154.431 172.152 154.406 171.313 154.569C171.239 154.583 171.168 154.611 171.105 154.652C171.042 154.693 170.988 154.747 170.946 154.809C170.904 154.871 170.874 154.941 170.859 155.015C170.844 155.089 170.844 155.165 170.858 155.24C170.87 155.313 170.897 155.383 170.936 155.445C170.976 155.508 171.028 155.562 171.088 155.604C171.149 155.646 171.217 155.676 171.29 155.691C171.362 155.706 171.437 155.706 171.509 155.691C172.185 155.57 172.88 155.594 173.547 155.76C173.866 155.842 174.172 155.968 174.457 156.134C174.521 156.171 174.593 156.195 174.667 156.204C174.741 156.213 174.816 156.207 174.888 156.187C174.96 156.167 175.027 156.133 175.086 156.087C175.144 156.041 175.193 155.983 175.23 155.918L175.289 155.768ZM164.273 193.273C164.304 193.156 164.298 193.032 164.257 192.919C164.232 192.847 164.193 192.781 164.142 192.725C164.092 192.669 164.031 192.623 163.962 192.591C163.894 192.559 163.82 192.541 163.744 192.538C163.669 192.535 163.594 192.547 163.523 192.574C162.463 192.971 161.377 193.324 160.306 193.552C160.235 193.572 160.167 193.607 160.109 193.653C160.05 193.7 160.001 193.758 159.965 193.823C159.929 193.889 159.906 193.961 159.897 194.036C159.889 194.11 159.895 194.186 159.916 194.258C159.936 194.33 159.971 194.398 160.017 194.456C160.064 194.515 160.121 194.564 160.187 194.601C160.252 194.637 160.324 194.66 160.398 194.669C160.472 194.677 160.547 194.671 160.619 194.65C161.725 194.358 162.833 193.992 163.932 193.587C164.037 193.577 164.137 193.536 164.22 193.47C164.302 193.404 164.364 193.315 164.398 193.215L164.273 193.273ZM164.41 176.588C164.431 176.509 164.434 176.427 164.421 176.347C164.407 176.267 164.377 176.191 164.332 176.124C163.726 175.177 163.179 174.192 162.695 173.176C162.617 173.045 162.491 172.949 162.344 172.91C162.197 172.87 162.04 172.89 161.907 172.964C161.778 173.04 161.684 173.164 161.646 173.309C161.607 173.453 161.627 173.608 161.701 173.738C162.21 174.798 162.781 175.826 163.413 176.817C163.45 176.884 163.5 176.943 163.56 176.99C163.62 177.037 163.688 177.071 163.762 177.091C163.835 177.111 163.912 177.115 163.987 177.105C164.063 177.094 164.135 177.068 164.201 177.029C164.297 176.986 164.38 176.916 164.439 176.827C164.499 176.739 164.532 176.636 164.536 176.529L164.41 176.588ZM168.76 156.5C168.796 156.362 168.783 156.215 168.724 156.085C168.643 155.957 168.517 155.864 168.371 155.825C168.225 155.785 168.07 155.802 167.936 155.873C166.88 156.403 165.868 157.019 164.911 157.714C164.851 157.758 164.8 157.814 164.762 157.878C164.723 157.942 164.698 158.013 164.686 158.087C164.675 158.161 164.678 158.237 164.696 158.309C164.714 158.382 164.746 158.451 164.79 158.511C164.882 158.634 165.018 158.717 165.17 158.741C165.322 158.764 165.477 158.727 165.601 158.637C166.499 157.981 167.451 157.405 168.447 156.914C168.556 156.883 168.655 156.822 168.732 156.739C168.809 156.656 168.862 156.553 168.885 156.442L168.76 156.5ZM157.657 195.088C157.694 195.013 157.716 194.931 157.721 194.847C157.708 194.773 157.679 194.702 157.638 194.639C157.597 194.576 157.544 194.522 157.482 194.479C157.42 194.437 157.35 194.407 157.277 194.392C157.203 194.377 157.127 194.377 157.053 194.391C155.936 194.588 154.815 194.729 153.687 194.831C153.537 194.845 153.399 194.917 153.303 195.033C153.207 195.149 153.16 195.298 153.173 195.449C153.178 195.524 153.197 195.598 153.231 195.666C153.264 195.734 153.31 195.794 153.367 195.844C153.424 195.893 153.49 195.931 153.562 195.955C153.633 195.978 153.709 195.988 153.784 195.982C154.951 195.872 156.111 195.723 157.25 195.513C157.381 195.51 157.508 195.46 157.606 195.371C157.703 195.282 157.766 195.161 157.783 195.03L157.657 195.088ZM161.53 170.318C161.552 170.219 161.547 170.117 161.518 170.02C161.224 168.965 161.07 167.876 161.06 166.781C161.061 166.706 161.047 166.632 161.019 166.562C160.991 166.493 160.95 166.43 160.898 166.376C160.845 166.323 160.783 166.28 160.715 166.251C160.646 166.222 160.572 166.206 160.498 166.206C160.423 166.202 160.348 166.215 160.277 166.242C160.207 166.269 160.143 166.31 160.089 166.363C160.036 166.416 159.993 166.48 159.965 166.55C159.937 166.62 159.923 166.695 159.925 166.77C159.931 167.973 160.093 169.169 160.407 170.33C160.451 170.477 160.552 170.602 160.686 170.676C160.821 170.75 160.98 170.768 161.127 170.726C161.248 170.717 161.362 170.67 161.455 170.593C161.548 170.516 161.615 170.411 161.647 170.294L161.53 170.318ZM163.319 160.585C163.346 160.477 163.343 160.364 163.31 160.257C163.277 160.151 163.215 160.055 163.131 159.982C163.015 159.888 162.866 159.844 162.718 159.859C162.57 159.875 162.433 159.948 162.338 160.064C161.55 161.015 160.932 162.096 160.513 163.26C160.486 163.33 160.474 163.405 160.477 163.48C160.479 163.555 160.497 163.629 160.528 163.698C160.559 163.766 160.604 163.828 160.659 163.879C160.714 163.93 160.778 163.969 160.849 163.995C160.919 164.024 160.994 164.039 161.069 164.037C161.145 164.036 161.22 164.019 161.288 163.987C161.357 163.955 161.419 163.91 161.469 163.853C161.52 163.797 161.558 163.73 161.581 163.658C161.965 162.64 162.509 161.691 163.194 160.847C163.305 160.783 163.391 160.682 163.435 160.562L163.319 160.585ZM150.83 195.629L150.867 195.492C150.865 195.338 150.803 195.192 150.695 195.083C150.587 194.975 150.44 194.913 150.287 194.912C149.169 194.906 148.03 194.839 146.923 194.725C146.847 194.716 146.771 194.722 146.698 194.743C146.626 194.764 146.558 194.8 146.499 194.848C146.44 194.895 146.391 194.954 146.355 195.021C146.32 195.088 146.297 195.162 146.29 195.237C146.277 195.389 146.323 195.54 146.418 195.658C146.513 195.777 146.65 195.853 146.8 195.872C147.942 195.995 149.12 196.054 150.272 196.069C150.423 196.096 150.577 196.062 150.703 195.975C150.829 195.889 150.917 195.756 150.947 195.606L150.83 195.629ZM143.99 194.913C144.008 194.839 144.01 194.762 143.997 194.686C143.985 194.611 143.957 194.539 143.916 194.475C143.875 194.41 143.821 194.355 143.758 194.312C143.696 194.269 143.625 194.239 143.55 194.223C142.848 194.034 142.163 193.85 141.46 193.661C141.067 193.555 140.673 193.449 140.279 193.343C140.207 193.321 140.132 193.314 140.058 193.321C139.984 193.329 139.912 193.351 139.846 193.386C139.78 193.422 139.722 193.47 139.675 193.528C139.628 193.586 139.593 193.652 139.571 193.724C139.547 193.797 139.537 193.873 139.543 193.949C139.549 194.026 139.57 194.1 139.605 194.168C139.64 194.236 139.688 194.296 139.747 194.345C139.805 194.394 139.873 194.43 139.946 194.452C140.357 194.563 140.751 194.669 141.162 194.779C141.882 194.973 142.601 195.166 143.32 195.36C143.402 195.395 143.491 195.41 143.58 195.404C143.669 195.398 143.756 195.371 143.832 195.325C143.909 195.279 143.974 195.216 144.021 195.14C144.069 195.064 144.098 194.979 144.107 194.889L143.99 194.913ZM137.421 192.906C137.458 192.771 137.445 192.628 137.383 192.503C137.322 192.377 137.217 192.279 137.089 192.226C136.063 191.803 135.035 191.323 134.02 190.792C133.953 190.758 133.88 190.738 133.805 190.732C133.73 190.726 133.655 190.736 133.584 190.759C133.513 190.783 133.447 190.821 133.391 190.87C133.334 190.919 133.288 190.98 133.254 191.047C133.186 191.18 133.172 191.335 133.217 191.478C133.261 191.621 133.359 191.741 133.491 191.811C134.54 192.352 135.598 192.858 136.658 193.291C136.727 193.32 136.802 193.334 136.877 193.334C136.952 193.334 137.027 193.319 137.096 193.289C137.165 193.26 137.228 193.217 137.281 193.163C137.334 193.109 137.375 193.045 137.403 192.975L137.421 192.906ZM131.328 189.736C131.378 189.64 131.399 189.532 131.389 189.424C131.379 189.316 131.337 189.214 131.269 189.13C130.329 188.527 129.385 187.867 128.484 187.182C128.426 187.136 128.358 187.102 128.286 187.082C128.214 187.062 128.139 187.056 128.065 187.066C127.991 187.075 127.92 187.099 127.855 187.136C127.79 187.172 127.733 187.222 127.687 187.281C127.598 187.407 127.559 187.562 127.58 187.715C127.601 187.867 127.678 188.007 127.798 188.104C128.711 188.81 129.689 189.479 130.642 190.104C130.774 190.186 130.932 190.212 131.082 190.176C131.233 190.141 131.363 190.047 131.445 189.915L131.328 189.736ZM125.875 185.54C125.903 185.441 125.902 185.335 125.873 185.236C125.845 185.138 125.789 185.049 125.712 184.98C124.869 184.218 124.074 183.414 123.305 182.58C123.198 182.47 123.052 182.406 122.898 182.402C122.745 182.399 122.596 182.456 122.484 182.562C122.428 182.613 122.383 182.675 122.352 182.744C122.32 182.813 122.304 182.887 122.302 182.963C122.301 183.039 122.315 183.114 122.344 183.184C122.373 183.254 122.416 183.317 122.47 183.37C123.252 184.225 124.081 185.039 124.923 185.874C125.037 185.976 125.187 186.029 125.34 186.022C125.493 186.015 125.637 185.948 125.741 185.836L125.875 185.54ZM121.198 180.502C121.217 180.417 121.217 180.329 121.199 180.244C121.18 180.16 121.143 180.08 121.09 180.012C120.391 179.123 119.74 178.192 119.11 177.248C119.032 177.117 118.906 177.021 118.759 176.981C118.612 176.942 118.455 176.961 118.322 177.036C118.256 177.073 118.198 177.123 118.151 177.183C118.104 177.244 118.07 177.313 118.05 177.387C118.03 177.46 118.025 177.537 118.036 177.613C118.047 177.689 118.072 177.762 118.111 177.827C118.753 178.793 119.439 179.733 120.15 180.644C120.245 180.766 120.383 180.846 120.536 180.866C120.688 180.887 120.843 180.846 120.966 180.752C121.111 180.706 121.235 180.608 121.314 180.478L121.198 180.502ZM117.406 174.761C117.425 174.691 117.43 174.618 117.421 174.546C117.412 174.474 117.388 174.404 117.352 174.341C116.81 173.347 116.294 172.323 115.834 171.296C115.804 171.227 115.761 171.165 115.707 171.113C115.653 171.061 115.59 171.021 115.52 170.993C115.451 170.966 115.377 170.953 115.302 170.955C115.227 170.956 115.154 170.972 115.086 171.002C115.017 171.032 114.956 171.076 114.904 171.13C114.852 171.184 114.812 171.247 114.785 171.317C114.757 171.387 114.744 171.461 114.746 171.536C114.747 171.611 114.764 171.685 114.794 171.753C115.262 172.82 115.79 173.865 116.341 174.899C116.419 175.03 116.545 175.126 116.692 175.165C116.839 175.205 116.996 175.185 117.129 175.111C117.217 175.08 117.298 175.031 117.366 174.966C117.434 174.902 117.487 174.824 117.522 174.737L117.406 174.761ZM114.603 168.476C114.628 168.366 114.627 168.252 114.6 168.143C114.227 167.065 113.892 165.98 113.631 164.895C113.614 164.821 113.583 164.751 113.539 164.689C113.494 164.627 113.438 164.575 113.374 164.535C113.309 164.495 113.237 164.469 113.162 164.458C113.087 164.446 113.01 164.45 112.937 164.469C112.79 164.507 112.664 164.601 112.584 164.731C112.505 164.861 112.479 165.017 112.512 165.166C112.799 166.294 113.124 167.414 113.459 168.5C113.482 168.572 113.52 168.639 113.569 168.697C113.619 168.755 113.679 168.802 113.747 168.836C113.815 168.869 113.889 168.889 113.965 168.894C114.041 168.898 114.117 168.887 114.188 168.862C114.316 168.867 114.442 168.829 114.546 168.753C114.65 168.677 114.725 168.568 114.759 168.444L114.603 168.476ZM112.956 161.782L113.011 161.576C112.836 160.452 112.721 159.319 112.668 158.183C112.654 158.032 112.583 157.893 112.469 157.794C112.356 157.694 112.208 157.643 112.058 157.65C111.905 157.66 111.763 157.729 111.66 157.843C111.558 157.956 111.504 158.106 111.51 158.259C111.589 159.405 111.699 160.577 111.869 161.729C111.893 161.881 111.975 162.018 112.098 162.11C112.221 162.202 112.375 162.241 112.527 162.22C112.66 162.218 112.788 162.168 112.889 162.081C112.989 161.993 113.056 161.873 113.077 161.741L112.956 161.782Z" fill="#203226"/>
</g>
</svg>
