<svg width="29" height="28" viewBox="0 0 29 28" fill="none"
     xmlns="http://www.w3.org/2000/svg">
    <rect class="tgo-color" x="0.258667" width="28" height="28" rx="14"
          fill="#1d7c79"></rect>
    <path
            d="M20.8915 17.2746L18.9337 15.3208C18.2345 14.6231 17.0458 14.9022 16.7661 15.8093C16.5563 16.4373 15.8571 16.7862 15.2278 16.6466C13.8293 16.2977 11.9414 14.4835 11.5917 13.0182C11.382 12.3902 11.8015 11.6924 12.4308 11.4831C13.3398 11.204 13.6195 10.0178 12.9203 9.32007L10.9624 7.36633C10.4031 6.87789 9.56397 6.87789 9.07451 7.36633L7.74597 8.69208C6.41742 10.0876 7.88581 13.7858 11.1722 17.0652C14.4586 20.3447 18.1645 21.8798 19.563 20.4843L20.8915 19.1585C21.381 18.6003 21.381 17.763 20.8915 17.2746Z"
            fill="white"></path>
</svg>