<svg width="149" height="34" viewBox="0 0 149 34" fill="none" xmlns="http://www.w3.org/2000/svg">
<g clip-path="url(#clip0_86_82)">
<path d="M64.9005 15.4302C64.9005 15.7702 64.8705 16.0002 64.7905 16.1502C64.7205 16.3002 64.6105 16.3702 64.4705 16.3702H64.3205H64.2605C64.1905 16.3702 64.1305 16.3602 64.0605 16.3302C64.0005 16.3102 63.9405 16.2702 63.8805 16.2302C63.8205 16.1902 63.7605 16.1402 63.7005 16.0902C63.6405 16.0402 63.5705 15.9802 63.5005 15.9102C63.2905 15.7402 63.1605 15.5602 63.0805 15.3602C63.0105 15.1602 62.9805 14.9502 62.9805 14.7302V14.6502C62.9805 14.6302 62.9905 14.6002 62.9905 14.5702V14.5002V14.4202C63.0305 14.2502 63.0605 14.0702 63.1005 13.8802C63.1305 13.6902 63.1505 13.4802 63.1705 13.2702C63.2505 12.6302 63.3505 11.8702 63.4905 11.0002C63.6205 10.1302 63.9005 9.17023 64.3205 8.11023V8.09023C64.3205 8.08023 64.3305 8.07024 64.3305 8.06024V8.04023V8.01023C64.3305 7.96023 64.3205 7.90023 64.2805 7.82023C64.2505 7.74023 64.2105 7.64023 64.1605 7.51023C64.0905 7.34023 64.0405 7.21023 63.9905 7.11023C63.9805 7.00023 63.9605 6.92023 63.9605 6.87023C63.9605 6.82023 63.9805 6.79023 64.0205 6.77023C64.0605 6.76023 64.3505 6.74023 64.3505 6.74023H64.5705C65.1205 6.76023 65.5205 6.94023 65.7705 7.29023C66.0205 7.63023 66.2105 8.01023 66.3405 8.41023C66.3605 8.45023 66.3805 8.49023 66.3805 8.53023C66.3905 8.57023 66.4005 8.61023 66.4105 8.65023C66.5705 9.11023 66.6905 9.55023 66.7805 9.96023C66.8705 10.3702 66.9505 10.7602 67.0305 11.1102C67.0305 11.1402 67.0305 11.1602 67.0405 11.1902C67.0405 11.2102 67.0505 11.2402 67.0605 11.2702C67.0705 11.3802 67.0805 11.4702 67.1005 11.5502C67.1205 11.6302 67.1305 11.6902 67.1505 11.7402C67.1505 11.7602 67.1605 11.7702 67.1605 11.7902C67.1705 11.8102 67.1705 11.8202 67.1805 11.8302C67.2205 11.7902 67.2605 11.7002 67.2905 11.5902C67.3305 11.4802 67.3605 11.3302 67.3905 11.1502C67.5605 10.4202 67.7905 9.73023 68.0705 9.08023C68.3605 8.43023 68.6705 7.86023 69.0105 7.37023C69.0705 7.29023 69.1305 7.23023 69.1905 7.18023C69.2505 7.14023 69.3205 7.12023 69.3905 7.12023H69.5405C69.6305 7.12023 69.7405 7.15023 69.8705 7.21023C70.0005 7.30023 70.1405 7.40023 70.3105 7.54023C70.5305 7.67023 70.6805 7.83023 70.7805 7.99023C70.8705 8.16023 70.9305 8.33023 70.9605 8.51023C70.9605 8.53023 70.9605 8.55023 70.9705 8.58023C70.9805 8.60023 70.9805 8.63023 70.9805 8.66023V8.93023V9.20023C70.9705 9.29023 70.9605 9.38023 70.9605 9.47023V9.74023C70.9605 11.0402 71.0105 12.2402 71.1205 13.3302C71.2205 14.4202 71.4105 15.4402 71.6905 16.3902C71.7005 16.4202 71.7105 16.4402 71.7205 16.4602C71.7305 16.4802 71.7405 16.5002 71.7405 16.5202C71.7505 16.5402 71.7505 16.5602 71.7505 16.5802V16.6102V16.6302C71.7505 16.6402 71.7405 16.6402 71.7405 16.6502C71.7305 16.6802 71.7105 16.7002 71.6905 16.7202C71.6705 16.7402 71.6405 16.7502 71.5905 16.7502L71.4505 16.7702C71.3905 16.7602 71.3005 16.7402 71.1805 16.6902C71.0605 16.6502 70.8905 16.5702 70.7005 16.4602C70.5505 16.4002 70.4305 16.3602 70.3405 16.3302C70.2505 16.3002 70.1705 16.2702 70.1105 16.2402C70.0405 16.1902 69.9905 16.1402 69.9505 16.0902C69.9105 16.0402 69.8805 15.9702 69.8505 15.8802C69.8505 15.8602 69.8405 15.8402 69.8405 15.8102C69.8305 15.7802 69.8205 15.7402 69.8105 15.7102C69.6705 15.0402 69.5705 14.3302 69.5105 13.5802C69.4505 12.8202 69.4205 11.9402 69.4105 10.9202C69.4105 10.7802 69.4005 10.6802 69.3805 10.6002C69.3605 10.5302 69.3305 10.4702 69.3105 10.4302C69.2905 10.4602 69.2705 10.5002 69.2505 10.5402C69.2205 10.5902 69.2005 10.6302 69.1705 10.7002C69.1605 10.7302 69.1505 10.7602 69.1305 10.7902C69.1105 10.8202 69.1005 10.8602 69.0905 10.8902C68.8805 11.5602 68.7005 12.2902 68.5205 13.0802C68.3505 13.8702 68.2505 14.7102 68.2305 15.5802C68.2305 15.6802 68.2205 15.7602 68.1905 15.8302C68.1605 15.9002 68.1105 15.9302 68.0205 15.9302H67.8705C67.8205 15.9302 67.7605 15.9202 67.6705 15.8902C67.5905 15.8602 67.4905 15.8202 67.3805 15.7702C67.2605 15.7102 67.1605 15.6602 67.0705 15.6102C66.9805 15.5702 66.9105 15.5202 66.8505 15.4802C66.7505 15.4102 66.6805 15.3402 66.6305 15.2702C66.5805 15.2002 66.5305 15.1102 66.4805 14.9902C66.4605 14.9302 66.4405 14.8702 66.4205 14.8002C66.4005 14.7402 66.3705 14.6602 66.3505 14.5702L65.4205 10.8602C65.3905 10.7302 65.3605 10.6202 65.3305 10.5402C65.3005 10.4502 65.2705 10.3902 65.2405 10.3502C65.2305 10.3902 65.2205 10.4402 65.2005 10.5102C65.1805 10.5702 65.1705 10.6602 65.1605 10.7702C65.1505 10.9602 65.1405 11.1402 65.1205 11.3402C65.1005 11.5302 65.0805 11.7302 65.0605 11.9202C65.0405 12.2002 65.0205 12.4802 64.9905 12.7602C64.9705 13.0502 64.9505 13.3302 64.9305 13.6002C64.9205 13.7702 64.9205 13.9302 64.9105 14.0902C64.9005 14.2502 64.9005 14.4202 64.9005 14.5702V14.7102C64.9005 14.7602 64.9005 14.8002 64.9105 14.8502V14.9902V15.1302V15.4302H64.9005Z" fill="#003DA5"/>
<path d="M72.9501 13.8703C72.9201 14.0503 72.8901 14.2403 72.8801 14.4203C72.8701 14.6003 72.8501 14.7903 72.8501 14.9803V15.1103C72.8501 15.1603 72.8601 15.2103 72.8701 15.2503V15.4003V15.5503C72.8701 15.5903 72.8801 15.6203 72.8801 15.6403C72.8901 15.6603 72.9001 15.6803 72.9101 15.7003C72.9201 15.7203 72.9301 15.7403 72.9501 15.7603C72.9701 15.7803 72.9901 15.8103 73.0201 15.8403C73.1001 15.9103 73.1901 15.9703 73.2801 16.0303C73.3701 16.0903 73.4701 16.1403 73.5701 16.1903C73.7101 16.2603 73.8401 16.3103 73.9701 16.3403C74.1001 16.3703 74.2101 16.3903 74.3101 16.3903H74.4601C74.5501 16.3903 74.6201 16.3703 74.6901 16.3403C74.7601 16.3103 74.7901 16.2503 74.8001 16.1903C74.8201 15.8403 74.8401 15.4703 74.8701 15.0903C74.9001 14.7103 74.9501 14.3103 75.0201 13.8703C75.0301 13.7903 75.0501 13.7303 75.0901 13.7103C75.1301 13.6803 75.2001 13.6603 75.3101 13.6503L76.4801 13.5203H76.5201H76.5401C76.5701 13.5303 76.5901 13.5403 76.6001 13.5603C76.6101 13.5803 76.6201 13.6103 76.6301 13.6503C76.6301 13.6603 76.6301 13.6703 76.6401 13.6903C76.6401 13.7103 76.6401 13.7303 76.6401 13.7503C76.6801 14.0003 76.7101 14.2303 76.7401 14.4303C76.7701 14.6303 76.7901 14.8203 76.8001 15.0103C76.8101 15.1303 76.8201 15.2403 76.8301 15.3603C76.8401 15.4703 76.8501 15.6003 76.8601 15.7203C76.8601 15.8003 76.8601 15.8803 76.8601 15.9603C76.8701 16.0403 76.8701 16.1303 76.8901 16.2203C76.9001 16.2403 76.9201 16.2603 76.9501 16.2903C76.9801 16.3103 77.0101 16.3403 77.0501 16.3603C77.1401 16.4103 77.2601 16.4603 77.4001 16.5103C77.5401 16.5603 77.6901 16.6103 77.8401 16.6503C77.9501 16.6803 78.0601 16.7003 78.1701 16.7203C78.2801 16.7303 78.3801 16.7403 78.4601 16.7603L78.6101 16.7403C78.7001 16.7403 78.7701 16.7303 78.8401 16.7103C78.9101 16.6903 78.9401 16.6603 78.9501 16.6203C78.6401 14.6703 78.3801 13.0803 78.1601 11.8703C77.9401 10.6503 77.7301 9.70027 77.5301 9.01027C77.2901 8.21027 77.0401 7.69027 76.7801 7.44027C76.5201 7.19027 76.1901 7.05027 75.8001 7.03027H75.7301H75.6001C75.5201 7.03027 75.4601 7.04027 75.4201 7.06027C75.3801 7.08027 75.3501 7.11027 75.3401 7.13027C75.3301 7.14027 75.3301 7.15027 75.3301 7.15027V7.18027C75.3301 7.19027 75.3301 7.20027 75.3301 7.21027C75.3401 7.22027 75.3401 7.24027 75.3501 7.25027C75.3601 7.26027 75.3701 7.27027 75.3701 7.28027C75.3801 7.29027 75.3801 7.30027 75.3801 7.31027L75.6201 8.00027C75.5601 7.98027 75.5101 7.97027 75.4601 7.96027C75.4101 7.95027 75.3601 7.95027 75.3101 7.95027H75.1601C75.0701 7.95027 74.9901 7.97027 74.9001 8.03027C74.8101 8.09027 74.7301 8.17027 74.6501 8.29027C74.4901 8.53027 74.3301 8.92027 74.1601 9.46027C73.9901 10.0103 73.7801 10.7703 73.5301 11.7403C73.4801 12.0203 73.4101 12.1903 73.3101 12.2603C73.2101 12.3303 73.0901 12.3803 72.9601 12.4103C72.8601 12.4403 72.7601 12.4803 72.6601 12.5103C72.5601 12.5503 72.4501 12.6303 72.3301 12.7603C72.3701 12.9103 72.4201 13.0403 72.4801 13.1703C72.5301 13.2903 72.5901 13.4003 72.6401 13.4903C72.7001 13.5903 72.7601 13.6703 72.8101 13.7403C72.8601 13.7903 72.9201 13.8403 72.9501 13.8703ZM75.3901 12.0003C75.4001 11.8603 75.4201 11.7203 75.4401 11.5703C75.4701 11.4303 75.5001 11.2703 75.5401 11.1103C75.6001 10.8703 75.6701 10.6503 75.7501 10.4303C75.8301 10.2103 75.9301 10.0103 76.0301 9.84027C76.0301 9.85027 76.0401 9.85027 76.0501 9.85027V9.88027C76.1601 10.4103 76.2601 10.8803 76.3301 11.2703C76.4001 11.6703 76.4401 11.9503 76.4601 12.1403H75.5401C75.4801 12.1403 75.4401 12.1303 75.4201 12.1103C75.4001 12.0903 75.3901 12.0803 75.3901 12.0803V12.0003V12.0003Z" fill="#003DA5"/>
<path d="M83.7797 7.40977C83.7797 7.40977 83.7997 7.42977 83.8397 7.45977C83.8797 7.48977 83.9197 7.52977 83.9397 7.55977C84.0797 7.67977 84.1697 7.80977 84.2297 7.93977C84.2797 8.06977 84.3297 8.22977 84.3697 8.41977C84.3797 8.47977 84.3897 8.53977 84.3997 8.60977C84.4097 8.67977 84.4297 8.73977 84.4397 8.80977C84.7497 10.1498 85.0097 11.4198 85.2097 12.6198C85.4097 13.8198 85.5897 14.8898 85.7197 15.8298C85.7297 15.8498 85.7397 15.8698 85.7397 15.8898C85.7497 15.9198 85.7497 15.9398 85.7497 15.9598C85.7697 16.0198 85.7797 16.0698 85.7797 16.1198C85.7797 16.1698 85.7897 16.2198 85.7897 16.2498C85.7897 16.3498 85.7497 16.4198 85.6897 16.4698C85.6297 16.5198 85.5097 16.5398 85.3397 16.5398L85.1897 16.5498C85.0897 16.5398 84.9697 16.5198 84.8097 16.4998C84.6597 16.4798 84.4997 16.3898 84.3497 16.2598C84.2397 16.1598 84.1297 16.0298 84.0197 15.8498C83.9097 15.6798 83.8097 15.4498 83.7197 15.1598C83.6897 14.9698 83.6597 14.7898 83.6297 14.5998C83.5997 14.4098 83.5697 14.2198 83.5397 14.0298C83.4597 13.4098 83.3997 12.8098 83.3497 12.2298C83.2997 11.6498 83.2697 11.1598 83.2497 10.7698C83.2397 10.5998 83.2197 10.4698 83.1997 10.3698C83.1697 10.2698 83.1397 10.1898 83.0997 10.1598C83.0897 10.1698 83.0797 10.1798 83.0697 10.1898C83.0597 10.1998 83.0597 10.2098 83.0597 10.2198C83.0497 10.2298 83.0397 10.2398 83.0297 10.2498C83.0197 10.2598 83.0097 10.2698 82.9997 10.2798C82.9297 10.4198 82.8497 10.6098 82.7697 10.8398C82.6897 11.0798 82.5997 11.3398 82.4997 11.6398C82.3997 11.9698 82.3097 12.3398 82.2097 12.7298C82.1197 13.1098 82.0397 13.5098 81.9697 13.8998C81.9097 14.2198 81.8597 14.5498 81.8297 14.8798C81.7997 15.2098 81.7797 15.5098 81.7797 15.7898V15.8298V15.8698V15.8898C81.7797 15.8998 81.7797 15.8998 81.7997 15.9098V15.9598V15.9998V16.1998C81.7997 16.3098 81.7797 16.3898 81.7497 16.4398C81.7197 16.4898 81.6697 16.5098 81.5997 16.5098L81.4497 16.5198C81.4097 16.5098 81.3597 16.4898 81.2897 16.4698C81.2197 16.4398 81.1597 16.4098 81.0697 16.3698C80.9897 16.3098 80.9097 16.2598 80.8297 16.1998C80.7497 16.1498 80.6797 16.0898 80.6097 16.0298C80.4097 15.8698 80.2497 15.7098 80.1197 15.5298C79.9897 15.3498 79.9297 15.1498 79.9297 14.9198V14.8798C79.9297 14.8698 79.9297 14.8498 79.9397 14.8298V14.7998V14.7698V14.7498C80.1797 13.0498 80.5297 11.5998 80.9597 10.3998C81.3997 9.19976 81.8597 8.17977 82.3397 7.35977C82.3597 7.32977 82.3797 7.29977 82.3897 7.27977C82.3997 7.25977 82.4197 7.22977 82.4397 7.19977C82.4797 7.13977 82.5197 7.08977 82.5597 7.05977C82.5997 7.02977 82.6497 7.00977 82.7097 7.00977H82.8597C82.9297 7.00977 83.0297 7.03977 83.1497 7.09977C83.2797 7.15977 83.4497 7.24977 83.6497 7.36977C83.7597 7.38977 83.7797 7.40977 83.7797 7.40977Z" fill="#003DA5"/>
<path d="M88.1606 16.1399C88.2006 16.1699 88.2406 16.1999 88.2906 16.2299C88.3306 16.2599 88.3906 16.2899 88.4406 16.3099C88.4806 16.3199 88.5305 16.3299 88.5705 16.3399C88.6205 16.3499 88.6505 16.3499 88.6805 16.3499H88.8306H88.8505H88.8706C88.9006 16.3399 88.9305 16.3399 88.9505 16.3299C88.9805 16.3199 89.0005 16.3199 89.0205 16.3099C89.0205 16.2999 89.0306 16.2899 89.0506 16.2799C89.0706 16.2599 89.0905 16.2399 89.1005 16.2299C89.1105 16.2099 89.1305 16.1999 89.1305 16.1899C89.1705 16.1999 89.2205 16.2199 89.2705 16.2499C89.3105 16.2799 89.3705 16.3199 89.4205 16.3699C89.4905 16.4399 89.5605 16.4899 89.6405 16.5299C89.7205 16.5699 89.8005 16.5999 89.8905 16.5999L90.0406 16.5899C90.2706 16.5899 90.5306 16.4799 90.8306 16.2699C91.1306 16.0499 91.4405 15.7299 91.7805 15.3099C92.0905 14.9199 92.3505 14.5499 92.5305 14.2099C92.7205 13.8699 92.8105 13.5299 92.8105 13.1999V13.1699C92.8105 13.1099 92.8106 13.0499 92.8006 12.9999C92.8006 12.9499 92.7905 12.8899 92.7805 12.8399C92.7305 12.5199 92.6306 12.2099 92.4806 11.9099C92.3206 11.6199 92.1206 11.3699 91.8706 11.1699C91.5506 10.9499 91.2305 10.8099 90.8905 10.7499C90.5505 10.6999 90.1905 10.6699 89.8205 10.6699H89.7906H89.6405C89.6005 10.6699 89.5605 10.6699 89.5305 10.6799C89.5005 10.6899 89.4605 10.6999 89.4305 10.7099C89.4205 10.7099 89.4106 10.7099 89.4006 10.7199C89.3806 10.7199 89.3605 10.7299 89.3505 10.7299C89.3405 10.7099 89.3305 10.6799 89.3205 10.6399C89.3105 10.5999 89.3105 10.5399 89.3105 10.4599V10.3999C89.3105 10.3899 89.3105 10.3699 89.3205 10.3599V10.3399V10.3099V10.2799C89.3305 9.96988 89.3405 9.69988 89.3605 9.44988C89.3705 9.20988 89.3906 8.95988 89.4106 8.70988C89.4206 8.55988 89.4305 8.40988 89.4505 8.26988C89.4705 8.11988 89.4805 7.96988 89.4905 7.79988V7.78988C89.4905 7.76988 89.4906 7.74988 89.4806 7.71988C89.4806 7.69988 89.4705 7.66988 89.4605 7.63988C89.4205 7.52988 89.3505 7.42988 89.2405 7.32988C89.1305 7.22988 89.0206 7.14988 88.9006 7.07988C88.8306 7.04988 88.7806 7.01988 88.7306 6.99988C88.6906 6.97988 88.6405 6.95988 88.5905 6.94988C88.5705 6.93988 88.5405 6.92988 88.5205 6.92988C88.4905 6.91988 88.4606 6.91988 88.4406 6.90988C88.4006 6.89988 88.3705 6.89988 88.3205 6.88988C88.2805 6.87988 88.2506 6.87988 88.2206 6.87988H88.0705C87.9705 6.87988 87.8805 6.89988 87.8105 6.94988C87.7405 6.98988 87.6905 7.05988 87.6805 7.15988C87.6105 7.94988 87.5506 8.63988 87.5106 9.21988C87.4706 9.80988 87.4306 10.3699 87.4006 10.9099C87.3806 11.3399 87.3605 11.7899 87.3405 12.2399C87.3305 12.6899 87.3105 13.1999 87.3105 13.7599C87.3105 13.8599 87.3105 13.9599 87.3205 14.0699C87.3205 14.1799 87.3305 14.2899 87.3405 14.3899C87.3505 14.5999 87.3706 14.7899 87.4106 14.9799C87.4506 15.1699 87.5005 15.3299 87.5605 15.4699C87.7605 15.7399 87.8605 15.8699 87.8605 15.8699C87.8605 15.8699 87.9706 15.9599 88.1606 16.1399ZM89.2206 14.7499C89.2106 14.6699 89.2005 14.5699 89.1805 14.4399C89.1705 14.3099 89.1606 14.1799 89.1606 14.0399V13.8799V13.7199C89.1706 13.6199 89.1805 13.5199 89.1805 13.4299C89.1905 13.3299 89.1905 13.2399 89.2005 13.1599C89.2005 13.0499 89.2106 12.9499 89.2206 12.8699C89.2306 12.7899 89.2306 12.7199 89.2306 12.6599C89.2506 12.4399 89.3205 12.2899 89.4305 12.1899C89.5405 12.0899 89.6805 12.0299 89.8405 12.0199C89.9605 11.9999 90.0705 11.9899 90.1805 11.9799C90.2905 11.9699 90.4005 11.9699 90.4905 11.9699C90.6205 11.9799 90.7306 11.9999 90.8306 12.0199C90.9206 12.0499 90.9905 12.0899 91.0305 12.1599C91.0605 12.2199 91.0805 12.2799 91.1105 12.3499C91.1305 12.4199 91.1405 12.4799 91.1405 12.5499C91.1405 12.6999 91.1006 12.8699 91.0106 13.0799C90.9206 13.2799 90.7906 13.5099 90.6206 13.7799C90.3806 14.1499 90.1405 14.4299 89.9205 14.6199C89.7005 14.7999 89.5205 14.9099 89.3805 14.9299C89.3405 14.9199 89.3105 14.8999 89.2805 14.8699C89.2405 14.8199 89.2306 14.7899 89.2206 14.7499Z" fill="#003DA5"/>
<path d="M93.3203 15.2102L93.3303 15.2702C93.3303 15.3302 93.3503 15.4002 93.3803 15.4702C93.4203 15.5402 93.4503 15.6202 93.4903 15.7002C93.5103 15.7402 93.5303 15.7702 93.5603 15.8002C93.5803 15.8302 93.6103 15.8702 93.6203 15.9002C93.6703 15.9902 93.7203 16.0702 93.7803 16.1402C93.8403 16.2102 93.8703 16.2602 93.8803 16.2602C93.9403 16.3402 94.0403 16.4002 94.1903 16.4302C94.3403 16.4702 94.5003 16.4902 94.6903 16.5002L94.8403 16.4802C94.8903 16.4802 94.9503 16.4802 95.0003 16.4802C95.0603 16.4802 95.1203 16.4702 95.1803 16.4702C95.2303 16.4602 95.2803 16.4502 95.3403 16.4502C95.4003 16.4402 95.4503 16.4402 95.5003 16.4302C95.5703 16.4202 95.6403 16.4102 95.7203 16.4002C95.8003 16.3902 95.8803 16.3802 95.9703 16.3702C96.1403 16.3402 96.3203 16.3102 96.5203 16.2902C96.7103 16.2702 96.9203 16.2502 97.1303 16.2302C97.3303 16.2102 97.5203 16.1902 97.7103 16.1902C97.9003 16.1802 98.0803 16.1702 98.2503 16.1702H98.4303C98.5103 16.3002 98.6103 16.3902 98.7203 16.4602C98.8303 16.5202 98.9703 16.5602 99.1203 16.5702L99.2703 16.5502H99.3203H99.3703C99.3803 16.5402 99.3903 16.5402 99.4203 16.5402H99.4603C99.7103 16.5002 99.8903 16.4402 99.9803 16.3702C100.07 16.2902 100.13 16.1802 100.14 16.0302C100.17 15.9902 100.21 15.9302 100.23 15.8402C100.25 15.7502 100.26 15.6502 100.26 15.5402C100.26 15.5002 100.26 15.4602 100.25 15.4202C100.24 15.3802 100.24 15.3402 100.24 15.3002C100.22 15.1502 100.18 15.0202 100.13 14.8902C100.08 14.7702 100.01 14.6902 99.9203 14.6602C99.8603 14.4802 99.8103 14.3002 99.7503 14.1002C99.7003 13.9002 99.6403 13.6902 99.6003 13.4602C99.4903 12.9402 99.3703 12.3102 99.2403 11.5702C99.1103 10.8402 98.9403 9.91023 98.7303 8.79023C98.7203 8.72023 98.7103 8.66023 98.7003 8.60023C98.6903 8.54023 98.6803 8.49023 98.6703 8.44023C98.6303 8.25023 98.5803 8.09023 98.5303 7.95023C98.4703 7.81023 98.3803 7.68023 98.2403 7.55023C98.2103 7.52023 98.1703 7.49023 98.1403 7.45023C98.1003 7.41023 98.0503 7.38023 98.0103 7.35023C97.7903 7.23023 97.6203 7.15023 97.5003 7.08023C97.3803 7.02023 97.2803 6.99023 97.2003 6.99023H97.0503C96.9903 6.99023 96.9403 7.01023 96.9003 7.04023C96.8603 7.07023 96.8203 7.12023 96.7803 7.18023C96.7603 7.21023 96.7403 7.24023 96.7303 7.26023C96.7103 7.28023 96.6903 7.31023 96.6803 7.34023C96.2003 8.17023 95.7403 9.18023 95.3003 10.3802C94.8603 11.5802 94.5303 13.0302 94.2903 14.7302C94.0403 14.7502 93.8503 14.7902 93.7103 14.8502C93.5703 14.9102 93.4703 14.9802 93.4003 15.0502C93.3803 15.0702 93.3603 15.0902 93.3503 15.1202C93.3503 15.1702 93.3403 15.1902 93.3203 15.2102ZM96.2103 14.7702V14.7102V14.6502C96.2003 14.6302 96.1903 14.6102 96.1903 14.5902V14.5302C96.1903 13.8902 96.2703 13.2802 96.4203 12.7102C96.5703 12.1402 96.7303 11.6302 96.9103 11.1902C96.9803 11.0102 97.0603 10.8502 97.1303 10.6902C97.2003 10.5302 97.2703 10.3902 97.3303 10.2602C97.3403 10.2502 97.3603 10.2402 97.3603 10.2302C97.3703 10.2202 97.3803 10.2102 97.3903 10.2002C97.3903 10.1902 97.4003 10.1802 97.4003 10.1702C97.4103 10.1602 97.4203 10.1502 97.4303 10.1402C97.4703 10.1802 97.5003 10.2502 97.5303 10.3502C97.5503 10.4502 97.5703 10.5902 97.5803 10.7502C97.6103 11.2602 97.6503 11.8502 97.7003 12.5202C97.7503 13.1902 97.8403 13.9102 97.9803 14.7002H97.6603H97.3603C97.2003 14.7102 97.0403 14.7202 96.8603 14.7302C96.6803 14.7502 96.4703 14.7602 96.2103 14.7702Z" fill="#003DA5"/>
<path d="M101.74 11.6798C101.77 11.0998 101.81 10.5298 101.85 9.9698C101.85 9.8798 101.85 9.7898 101.86 9.6998C101.86 9.6098 101.87 9.5198 101.88 9.4298C101.89 9.2998 101.9 9.1798 101.9 9.0498C101.91 8.9298 101.91 8.8098 101.92 8.6898C101.94 8.0698 101.97 7.5998 102.02 7.2798C102.06 6.9598 102.16 6.7998 102.29 6.7998H102.44C102.49 6.7998 102.55 6.8198 102.62 6.8598C102.69 6.8998 102.77 6.9598 102.86 7.0398C103.07 7.2198 103.24 7.3798 103.36 7.5298C103.48 7.6798 103.57 7.8198 103.63 7.9598C103.67 8.0398 103.69 8.1198 103.71 8.2098C103.72 8.2998 103.73 8.3898 103.73 8.4898C103.73 8.5898 103.72 8.6998 103.71 8.8298C103.69 8.9598 103.68 9.0998 103.66 9.2498C103.61 9.5298 103.57 9.9098 103.53 10.3998C103.48 10.8898 103.46 11.4598 103.45 12.1198C103.55 11.9398 103.65 11.7598 103.74 11.5798C103.84 11.3998 103.94 11.2098 104.04 11.0298C104.06 10.9998 104.08 10.9698 104.1 10.9298C104.12 10.8898 104.14 10.8598 104.16 10.8298C104.51 10.2098 104.83 9.6198 105.15 9.0598C105.47 8.4998 105.71 8.0698 105.87 7.7598C106 7.5498 106.12 7.3798 106.24 7.2598C106.37 7.1398 106.49 7.0798 106.6 7.0798H106.75C106.83 7.0798 106.91 7.0998 107 7.1498C107.09 7.1998 107.18 7.2798 107.27 7.3898C107.3 7.4198 107.32 7.4498 107.34 7.4898C107.36 7.5298 107.38 7.5598 107.4 7.5798C107.43 7.6498 107.45 7.7198 107.47 7.7798C107.49 7.8498 107.49 7.8998 107.49 7.9598C107.49 8.0898 107.47 8.2098 107.42 8.3498C107.37 8.4798 107.32 8.5998 107.25 8.7098C107.24 8.8798 107.23 9.0298 107.23 9.1798C107.22 9.3198 107.22 9.4598 107.2 9.5998V9.7898V9.9798V11.7098C107.2 12.2898 107.22 12.8198 107.24 13.2898C107.27 13.7598 107.32 14.2298 107.39 14.6898C107.42 14.8998 107.46 15.1098 107.49 15.3198C107.53 15.5298 107.57 15.7498 107.61 15.9598C107.63 16.0698 107.65 16.1698 107.65 16.2598C107.66 16.3498 107.67 16.4098 107.67 16.4498C107.67 16.5198 107.65 16.5698 107.62 16.6098C107.59 16.6498 107.55 16.6698 107.5 16.6698L107.35 16.6798C107.29 16.6698 107.21 16.6498 107.11 16.6098C107.01 16.5698 106.89 16.5198 106.76 16.4498C106.67 16.4098 106.59 16.3698 106.51 16.3398C106.43 16.2998 106.36 16.2698 106.29 16.2298C105.98 16.0598 105.78 15.8498 105.68 15.5998C105.57 15.3498 105.52 14.9098 105.52 14.2798C105.52 14.1498 105.52 14.0098 105.53 13.8698C105.53 13.7298 105.54 13.5798 105.55 13.4198C105.55 13.3298 105.55 13.2398 105.55 13.1498C105.56 13.0598 105.56 12.9698 105.56 12.8798V12.7998V12.7298C105.55 12.6998 105.55 12.6698 105.55 12.6498V12.5598C105.55 12.3298 105.55 12.0998 105.56 11.8998C105.57 11.6898 105.58 11.4898 105.59 11.2898C105.6 11.2398 105.6 11.1898 105.61 11.1398C105.62 11.0898 105.62 11.0398 105.62 10.9898C105.54 11.1198 105.47 11.2398 105.41 11.3398C105.34 11.4498 105.29 11.5598 105.24 11.6698C105.22 11.7098 105.2 11.7498 105.18 11.7798C105.16 11.8198 105.14 11.8498 105.12 11.8898C105.01 12.0998 104.9 12.3198 104.78 12.5698C104.66 12.8098 104.51 13.1098 104.33 13.4498C104.1 13.9798 103.91 14.4598 103.76 14.8798C103.61 15.2998 103.54 15.5598 103.54 15.6698C103.54 15.7298 103.54 15.7798 103.55 15.8398C103.55 15.8998 103.56 15.9498 103.57 15.9998C103.58 16.0698 103.59 16.1198 103.59 16.1698C103.59 16.2098 103.6 16.2498 103.6 16.2798C103.6 16.3198 103.59 16.3498 103.57 16.3598C103.55 16.3798 103.53 16.3798 103.5 16.3798H103.36H103.34C103.3 16.3698 103.26 16.3598 103.23 16.3598C103.19 16.3498 103.15 16.3498 103.11 16.3398C102.49 16.2198 102.1 16.0398 101.93 15.7798C101.76 15.5198 101.68 14.8998 101.68 13.9198V13.8198C101.68 13.7798 101.69 13.7398 101.69 13.6998V13.5998V13.4998C101.69 12.8598 101.71 12.2598 101.74 11.6798Z" fill="#003DA5"/>
<path d="M111.939 10.68C111.929 10.68 111.919 10.68 111.899 10.69C111.889 10.7 111.869 10.7 111.859 10.71C111.849 10.72 111.839 10.73 111.819 10.73C111.809 10.74 111.789 10.74 111.779 10.74C111.739 10.72 111.709 10.69 111.689 10.65C111.669 10.61 111.659 10.56 111.659 10.5L111.679 10.43V10.09C111.679 9.80004 111.659 9.56004 111.629 9.35004C111.599 9.14004 111.569 8.97004 111.529 8.83004C111.509 8.77004 111.489 8.71004 111.469 8.67004C111.449 8.62004 111.429 8.59004 111.429 8.55004C111.459 8.54004 111.489 8.53004 111.519 8.52004C111.549 8.52004 111.579 8.51004 111.609 8.51004C111.639 8.50004 111.669 8.49004 111.699 8.49004C111.729 8.49004 111.749 8.48004 111.769 8.47004C111.869 8.45004 111.959 8.43004 112.069 8.42004C112.169 8.40004 112.259 8.40004 112.329 8.40004C112.499 8.41004 112.649 8.45004 112.779 8.52004C112.909 8.60004 113.009 8.73004 113.069 8.91004C113.079 8.92004 113.089 8.94004 113.089 8.96004V9.02004V9.05004V9.10004C113.089 9.21004 113.069 9.33004 113.019 9.46004C112.969 9.59004 112.909 9.72004 112.819 9.86004C112.719 10.01 112.589 10.15 112.449 10.3C112.299 10.43 112.139 10.56 111.939 10.68ZM109.879 9.19004C109.869 9.54004 109.859 9.93004 109.839 10.36C109.819 10.78 109.809 11.22 109.789 11.66C109.759 12.16 109.729 12.65 109.699 13.13C109.669 13.61 109.639 14.04 109.599 14.41C109.589 14.55 109.579 14.68 109.569 14.8C109.549 14.92 109.539 15.03 109.529 15.13L109.519 15.2C109.519 15.27 109.529 15.34 109.559 15.4C109.589 15.46 109.619 15.52 109.649 15.55C109.679 15.6 109.719 15.65 109.779 15.7C109.809 15.73 109.839 15.76 109.879 15.79C109.909 15.82 109.949 15.84 109.979 15.87C110.079 15.96 110.209 16.04 110.339 16.12C110.469 16.2 110.609 16.27 110.749 16.33C110.769 16.33 110.789 16.34 110.799 16.34C110.809 16.35 110.829 16.35 110.849 16.36C110.859 16.36 110.869 16.36 110.879 16.37C110.889 16.37 110.899 16.38 110.909 16.38C110.909 16.39 110.919 16.4 110.929 16.4H110.959H111.109C111.139 16.4 111.169 16.39 111.179 16.38C111.199 16.37 111.219 16.35 111.229 16.33L111.389 15.87L111.399 15.84C111.409 15.85 111.419 15.85 111.429 15.85L111.449 15.86C111.639 16.05 111.839 16.18 112.019 16.27C112.199 16.35 112.369 16.4 112.529 16.41L112.679 16.4C112.909 16.4 113.129 16.32 113.369 16.14C113.609 15.98 113.869 15.71 114.179 15.36C114.369 15.14 114.509 14.89 114.619 14.61C114.719 14.33 114.779 14.03 114.809 13.72V13.65V13.59V13.48C114.809 13.45 114.799 13.41 114.789 13.38C114.769 13.06 114.689 12.74 114.549 12.43C114.409 12.12 114.199 11.86 113.929 11.64C113.889 11.62 113.859 11.6 113.839 11.57C113.829 11.54 113.809 11.53 113.809 11.51L113.879 11.43C114.119 11.19 114.299 10.94 114.429 10.68C114.559 10.42 114.639 10.16 114.679 9.89004C114.679 9.83004 114.679 9.78004 114.689 9.72004C114.689 9.67004 114.699 9.61004 114.699 9.56004C114.699 8.83004 114.389 8.18004 113.769 7.63004C113.149 7.07004 112.339 6.79004 111.349 6.79004H111.209C110.859 6.79004 110.489 6.83004 110.089 6.92004C109.689 7.01004 109.289 7.15004 108.869 7.35004C108.809 7.39004 108.769 7.43004 108.739 7.48004C108.709 7.53004 108.699 7.59004 108.699 7.66004C108.699 7.72004 108.709 7.79004 108.729 7.86004C108.749 7.94004 108.779 8.03004 108.819 8.13004C108.839 8.21004 108.869 8.28004 108.899 8.34004C108.929 8.40004 108.969 8.45004 108.989 8.52004C109.109 8.69004 109.229 8.82004 109.339 8.89004C109.449 8.96004 109.589 9.00004 109.739 9.01004C109.789 9.02004 109.839 9.04004 109.869 9.07004C109.899 9.10004 109.909 9.14004 109.909 9.17004V9.19004H109.879ZM111.849 12.14H111.929C111.949 12.14 111.969 12.14 111.999 12.13H112.079H112.149C112.379 12.14 112.559 12.19 112.709 12.29C112.849 12.39 112.959 12.54 113.029 12.75V12.8C113.029 12.82 113.029 12.83 113.039 12.86V12.91V12.97C113.039 13.3 112.949 13.63 112.759 13.93C112.579 14.24 112.369 14.46 112.139 14.61C112.079 14.64 112.009 14.67 111.959 14.69C111.899 14.72 111.849 14.73 111.799 14.74C111.719 14.72 111.649 14.68 111.579 14.61C111.509 14.54 111.469 14.44 111.449 14.31L111.629 12.34C111.639 12.27 111.659 12.22 111.689 12.2C111.699 12.17 111.759 12.15 111.849 12.14Z" fill="#003DA5"/>
<path d="M116.739 11.6798C116.769 11.0998 116.799 10.5298 116.839 9.9698C116.839 9.8798 116.839 9.7898 116.849 9.6998C116.859 9.6098 116.859 9.5198 116.869 9.4298C116.879 9.2998 116.879 9.1798 116.889 9.0498C116.889 8.9298 116.899 8.8098 116.909 8.6898C116.929 8.0698 116.959 7.5998 117.009 7.2798C117.049 6.9598 117.139 6.7998 117.289 6.7998H117.439C117.489 6.7998 117.549 6.8198 117.619 6.8598C117.689 6.8998 117.769 6.9598 117.859 7.0398C118.069 7.2198 118.229 7.3798 118.349 7.5298C118.469 7.6798 118.559 7.8198 118.619 7.9598C118.659 8.0398 118.689 8.1198 118.699 8.2098C118.709 8.2998 118.719 8.3898 118.719 8.4898C118.719 8.5898 118.709 8.6998 118.699 8.8298C118.679 8.9598 118.669 9.0998 118.649 9.2498C118.599 9.5298 118.559 9.9098 118.519 10.3998C118.479 10.8898 118.449 11.4598 118.449 12.1198C118.549 11.9398 118.639 11.7598 118.739 11.5798C118.839 11.3998 118.939 11.2098 119.039 11.0298C119.059 10.9998 119.069 10.9698 119.099 10.9298C119.119 10.8898 119.129 10.8598 119.159 10.8298C119.499 10.2098 119.829 9.6198 120.149 9.0598C120.469 8.4998 120.709 8.0698 120.879 7.7598C121.009 7.5498 121.129 7.3798 121.249 7.2598C121.379 7.1398 121.499 7.0798 121.619 7.0798H121.759C121.839 7.0798 121.929 7.0998 122.009 7.1498C122.099 7.1998 122.189 7.2798 122.279 7.3898C122.309 7.4198 122.329 7.4498 122.349 7.4898C122.369 7.5298 122.389 7.5598 122.409 7.5798C122.439 7.6498 122.459 7.7198 122.479 7.7798C122.489 7.8498 122.499 7.8998 122.499 7.9598C122.499 8.0898 122.469 8.2098 122.429 8.3498C122.379 8.4798 122.329 8.5998 122.269 8.7098C122.259 8.8798 122.249 9.0298 122.249 9.1798C122.239 9.3198 122.229 9.4598 122.219 9.5998V9.7898V9.9798V11.7098C122.219 12.2898 122.239 12.8198 122.269 13.2898C122.299 13.7598 122.349 14.2298 122.419 14.6898C122.449 14.8998 122.479 15.1098 122.519 15.3198C122.559 15.5298 122.599 15.7498 122.639 15.9598C122.659 16.0698 122.669 16.1698 122.679 16.2598C122.689 16.3498 122.689 16.4098 122.689 16.4498C122.689 16.5198 122.679 16.5698 122.649 16.6098C122.619 16.6498 122.579 16.6698 122.529 16.6698L122.379 16.6798C122.319 16.6698 122.239 16.6498 122.139 16.6098C122.039 16.5698 121.919 16.5198 121.789 16.4498C121.699 16.4098 121.619 16.3698 121.539 16.3398C121.459 16.2998 121.389 16.2698 121.319 16.2298C121.009 16.0598 120.809 15.8498 120.709 15.5998C120.609 15.3498 120.549 14.9098 120.549 14.2798C120.549 14.1498 120.549 14.0098 120.559 13.8698C120.559 13.7298 120.569 13.5798 120.589 13.4198C120.589 13.3298 120.589 13.2398 120.599 13.1498C120.609 13.0598 120.609 12.9698 120.609 12.8798V12.7998V12.7298C120.599 12.6998 120.599 12.6698 120.599 12.6498V12.5598C120.599 12.3298 120.599 12.0998 120.609 11.8998C120.619 11.6898 120.629 11.4898 120.639 11.2898C120.649 11.2398 120.659 11.1898 120.659 11.1398C120.669 11.0898 120.669 11.0398 120.669 10.9898C120.589 11.1198 120.519 11.2398 120.459 11.3398C120.399 11.4498 120.339 11.5598 120.289 11.6698C120.269 11.7098 120.249 11.7498 120.229 11.7798C120.209 11.8198 120.189 11.8498 120.169 11.8898C120.059 12.0998 119.949 12.3198 119.829 12.5698C119.709 12.8098 119.559 13.1098 119.369 13.4498C119.149 13.9798 118.959 14.4598 118.799 14.8798C118.639 15.2998 118.569 15.5598 118.569 15.6698C118.569 15.7298 118.569 15.7798 118.579 15.8398C118.579 15.8998 118.589 15.9498 118.599 15.9998C118.609 16.0698 118.619 16.1198 118.619 16.1698C118.629 16.2098 118.629 16.2498 118.629 16.2798C118.629 16.3198 118.619 16.3498 118.599 16.3598C118.579 16.3798 118.559 16.3798 118.529 16.3798H118.379H118.359C118.319 16.3698 118.279 16.3598 118.239 16.3598C118.199 16.3498 118.159 16.3498 118.119 16.3398C117.499 16.2198 117.099 16.0398 116.939 15.7798C116.769 15.5198 116.689 14.8998 116.689 13.9198V13.8198C116.689 13.7798 116.689 13.7398 116.699 13.6998V13.5998V13.4998C116.689 12.8598 116.709 12.2598 116.739 11.6798Z" fill="#003DA5"/>
<path d="M124.15 13.8703C124.12 14.0503 124.1 14.2403 124.08 14.4203C124.06 14.6003 124.06 14.7903 124.06 14.9803V15.1103C124.06 15.1603 124.07 15.2103 124.07 15.2503V15.4003V15.5503C124.07 15.5903 124.07 15.6203 124.09 15.6403C124.1 15.6603 124.11 15.6803 124.12 15.7003C124.13 15.7203 124.14 15.7403 124.17 15.7603C124.19 15.7803 124.21 15.8103 124.24 15.8403C124.32 15.9103 124.4 15.9703 124.5 16.0303C124.59 16.0903 124.69 16.1403 124.79 16.1903C124.93 16.2603 125.06 16.3103 125.19 16.3403C125.32 16.3703 125.43 16.3903 125.53 16.3903H125.68C125.77 16.3903 125.85 16.3703 125.91 16.3403C125.98 16.3103 126.01 16.2503 126.02 16.1903C126.04 15.8403 126.06 15.4703 126.1 15.0903C126.13 14.7103 126.18 14.3103 126.25 13.8703C126.26 13.7903 126.29 13.7303 126.33 13.7103C126.37 13.6803 126.44 13.6603 126.55 13.6503L127.72 13.5203H127.76H127.78C127.81 13.5303 127.83 13.5403 127.84 13.5603C127.85 13.5803 127.86 13.6103 127.87 13.6503C127.87 13.6603 127.87 13.6703 127.88 13.6903C127.89 13.7103 127.89 13.7303 127.89 13.7503C127.93 14.0003 127.96 14.2303 127.99 14.4303C128.01 14.6303 128.04 14.8203 128.06 15.0103C128.07 15.1303 128.08 15.2403 128.09 15.3603C128.1 15.4703 128.11 15.6003 128.12 15.7203C128.12 15.8003 128.12 15.8803 128.12 15.9603C128.13 16.0403 128.14 16.1303 128.14 16.2203C128.15 16.2403 128.17 16.2603 128.2 16.2903C128.23 16.3103 128.27 16.3403 128.3 16.3603C128.39 16.4103 128.51 16.4603 128.65 16.5103C128.8 16.5603 128.94 16.6103 129.09 16.6503C129.2 16.6803 129.3 16.7003 129.41 16.7203C129.52 16.7303 129.62 16.7403 129.7 16.7603L129.85 16.7403C129.94 16.7403 130.02 16.7303 130.08 16.7103C130.14 16.6903 130.18 16.6603 130.2 16.6203C129.89 14.6703 129.63 13.0803 129.41 11.8703C129.19 10.6503 128.98 9.70027 128.78 9.01027C128.54 8.21027 128.3 7.69027 128.03 7.44027C127.77 7.19027 127.44 7.05027 127.05 7.03027H126.98H126.83C126.75 7.03027 126.69 7.04027 126.65 7.06027C126.61 7.08027 126.58 7.11027 126.56 7.13027C126.55 7.14027 126.55 7.15027 126.55 7.15027V7.18027C126.55 7.19027 126.55 7.20027 126.56 7.21027C126.57 7.22027 126.57 7.24027 126.58 7.25027C126.59 7.26027 126.6 7.27027 126.61 7.28027C126.61 7.29027 126.62 7.30027 126.62 7.31027L126.8 8.00027C126.75 7.98027 126.69 7.97027 126.64 7.96027C126.59 7.95027 126.54 7.95027 126.49 7.95027H126.34C126.25 7.95027 126.17 7.97027 126.08 8.03027C126 8.09027 125.91 8.17027 125.84 8.29027C125.68 8.53027 125.51 8.92027 125.34 9.46027C125.17 10.0103 124.96 10.7703 124.71 11.7403C124.66 12.0203 124.59 12.1903 124.49 12.2603C124.39 12.3303 124.27 12.3803 124.14 12.4103C124.04 12.4403 123.94 12.4803 123.83 12.5103C123.72 12.5503 123.61 12.6303 123.5 12.7603C123.54 12.9103 123.59 13.0403 123.64 13.1703C123.7 13.2903 123.76 13.4003 123.8 13.4903C123.86 13.5903 123.92 13.6703 123.98 13.7403C124.06 13.7903 124.1 13.8403 124.15 13.8703ZM126.58 12.0003C126.59 11.8603 126.61 11.7203 126.63 11.5703C126.65 11.4303 126.69 11.2703 126.72 11.1103C126.78 10.8703 126.86 10.6503 126.94 10.4303C127.02 10.2103 127.11 10.0103 127.21 9.84027C127.21 9.85027 127.22 9.85027 127.23 9.85027V9.88027C127.35 10.4103 127.44 10.8803 127.51 11.2703C127.58 11.6703 127.62 11.9503 127.64 12.1403H126.72C126.67 12.1403 126.62 12.1303 126.6 12.1103C126.58 12.0903 126.57 12.0803 126.57 12.0803V12.0003H126.58Z" fill="#003DA5"/>
<path d="M135.43 8.20965C135.43 7.87965 135.47 7.62965 135.55 7.43965C135.62 7.24965 135.74 7.15965 135.87 7.15965H136.02C136.15 7.15965 136.3 7.24965 136.49 7.41965C136.68 7.58965 136.88 7.86965 137.1 8.23965C137.12 8.27965 137.14 8.31965 137.15 8.36965C137.16 8.40965 137.17 8.45965 137.18 8.48965C137.19 8.53965 137.2 8.58965 137.21 8.62965C137.22 8.66965 137.22 8.71965 137.22 8.75965C137.22 8.82965 137.22 8.89965 137.2 8.96965C137.19 9.03965 137.18 9.09965 137.17 9.15965C137.15 9.22965 137.14 9.28965 137.13 9.34965C137.12 9.39965 137.12 9.44965 137.12 9.48965L137.13 9.52965C137.12 9.57965 137.11 9.63965 137.1 9.69965C137.09 9.76965 137.08 9.82965 137.07 9.89965C137.03 10.2296 136.99 10.6696 136.95 11.2096C136.91 11.7496 136.89 12.3096 136.89 12.8896V12.9496V13.0096C136.89 13.5696 136.91 14.1096 136.95 14.6396C137 15.1696 137.07 15.6096 137.16 15.9796C137.18 16.0796 137.2 16.1696 137.21 16.2496C137.22 16.3396 137.23 16.4096 137.23 16.4596C137.23 16.5296 137.22 16.5796 137.19 16.6196C137.16 16.6496 137.12 16.6696 137.06 16.6696L136.91 16.6896C136.86 16.6796 136.79 16.6596 136.69 16.6296C136.59 16.5996 136.47 16.5396 136.34 16.4696C136.24 16.4296 136.15 16.3996 136.07 16.3496C135.99 16.3096 135.92 16.2696 135.85 16.2296C135.54 16.0596 135.34 15.8596 135.24 15.6196C135.14 15.3796 135.09 14.9596 135.09 14.3696C135.09 14.1696 135.09 13.9496 135.1 13.7096C135.11 13.4596 135.11 13.1896 135.12 12.8896C135.14 12.8296 135.15 12.7696 135.15 12.7096V12.5596C135.15 12.3896 135.11 12.2796 135.03 12.1996C134.95 12.1296 134.84 12.0896 134.7 12.0696C134.62 12.0796 134.53 12.0896 134.43 12.1096C134.33 12.1296 134.21 12.1396 134.1 12.1596C133.87 12.1696 133.72 12.2196 133.64 12.3096C133.56 12.3996 133.52 12.5696 133.52 12.8096C133.52 12.9196 133.53 13.0496 133.54 13.1996C133.55 13.3496 133.56 13.5196 133.59 13.7196C133.6 13.9096 133.61 14.1396 133.62 14.3796C133.63 14.6196 133.63 14.8896 133.63 15.1896V15.4696C133.63 15.5496 133.63 15.6296 133.64 15.6896C133.65 15.7596 133.66 15.8196 133.66 15.8796C133.66 15.9396 133.66 15.9896 133.66 16.0396C133.66 16.0896 133.67 16.1296 133.67 16.1796C133.67 16.2496 133.66 16.2996 133.64 16.3296C133.62 16.3596 133.59 16.3796 133.55 16.3796H133.4C133.36 16.3696 133.32 16.3596 133.29 16.3596C133.26 16.3596 133.22 16.3496 133.2 16.3396C132.61 16.2296 132.21 16.0696 132.01 15.8496C131.82 15.6296 131.71 15.1196 131.71 14.3196V13.9896C131.71 13.8696 131.72 13.7496 131.72 13.6196V13.5496V13.4796C131.73 13.4296 131.74 13.3796 131.74 13.3396C131.74 13.2996 131.75 13.2496 131.75 13.2096C131.75 13.1796 131.75 13.1496 131.74 13.1196C131.74 13.0896 131.73 13.0596 131.72 13.0296C131.69 12.9596 131.64 12.8896 131.58 12.8096C131.52 12.7396 131.43 12.6396 131.32 12.5096C131.31 12.4496 131.29 12.3896 131.25 12.3196C131.22 12.2496 131.18 12.1796 131.13 12.1096C131.11 12.0996 131.11 12.0896 131.1 12.0696C131.09 12.0596 131.09 12.0396 131.09 12.0296C131.02 11.9396 130.97 11.8496 130.92 11.7596C130.87 11.6696 130.85 11.5896 130.85 11.5196C130.85 11.5096 130.85 11.4996 130.86 11.4796C130.87 11.4696 130.87 11.4596 130.87 11.4396C130.89 11.3996 130.92 11.3696 130.96 11.3396C130.99 11.3096 131.04 11.2896 131.11 11.2696C131.12 11.2696 131.14 11.2696 131.15 11.2596C131.16 11.2596 131.18 11.2596 131.19 11.2596C131.49 11.2196 131.68 11.1396 131.76 11.0196C131.83 10.8996 131.88 10.6096 131.9 10.1596C131.91 9.98965 131.92 9.76965 131.93 9.52965C131.94 9.27965 131.96 8.99965 131.99 8.66965C132 8.59965 132.01 8.52965 132.02 8.46965C132.02 8.39965 132.03 8.33965 132.04 8.26965V8.13965C132.04 8.08965 132.05 8.03965 132.06 7.98965C132.07 7.70965 132.09 7.44965 132.14 7.22965C132.18 7.00965 132.28 6.88965 132.43 6.88965H132.58C132.63 6.88965 132.69 6.89965 132.75 6.91965C132.81 6.93965 132.88 6.97965 132.95 7.01965C133.29 7.30965 133.52 7.54965 133.63 7.70965C133.76 7.86965 133.82 8.01965 133.83 8.15965V8.19965V8.22965C133.83 8.28965 133.82 8.34965 133.82 8.41965C133.81 8.47965 133.8 8.55965 133.79 8.63965C133.77 8.71965 133.76 8.80965 133.74 8.90965C133.73 9.00965 133.73 9.11965 133.73 9.23965C133.73 9.28965 133.72 9.33965 133.71 9.37965C133.7 9.41965 133.7 9.46965 133.7 9.51965C133.67 9.72965 133.65 9.91965 133.62 10.0796C133.6 10.2396 133.59 10.3596 133.59 10.4596C133.59 10.6096 133.61 10.7096 133.66 10.7796C133.7 10.8496 133.78 10.8796 133.89 10.8896C134 10.8796 134.14 10.8596 134.31 10.8396C134.48 10.8096 134.68 10.7896 134.9 10.7596C134.98 10.7396 135.03 10.7096 135.07 10.6596C135.11 10.6196 135.15 10.5096 135.18 10.3296C135.21 10.1596 135.24 9.91965 135.28 9.60965C135.31 9.28965 135.36 8.85965 135.42 8.30965V8.20965H135.43Z" fill="#003DA5"/>
<path d="M139 13.8703C138.97 14.0503 138.95 14.2403 138.93 14.4203C138.92 14.6003 138.91 14.7903 138.91 14.9803V15.1103C138.91 15.1603 138.91 15.2103 138.92 15.2503V15.4003V15.5503C138.92 15.5903 138.93 15.6203 138.94 15.6403C138.95 15.6603 138.96 15.6803 138.97 15.7003C138.98 15.7203 138.99 15.7403 139.02 15.7603C139.04 15.7803 139.07 15.8103 139.09 15.8403C139.17 15.9103 139.25 15.9703 139.35 16.0303C139.44 16.0903 139.54 16.1403 139.64 16.1903C139.78 16.2603 139.91 16.3103 140.04 16.3403C140.17 16.3703 140.28 16.3903 140.38 16.3903H140.53C140.62 16.3903 140.7 16.3703 140.76 16.3403C140.82 16.3103 140.86 16.2503 140.87 16.1903C140.89 15.8403 140.92 15.4703 140.95 15.0903C140.98 14.7103 141.03 14.3103 141.09 13.8703C141.1 13.7903 141.12 13.7303 141.17 13.7103C141.21 13.6803 141.28 13.6603 141.39 13.6503L142.56 13.5203H142.6H142.62C142.65 13.5303 142.67 13.5403 142.68 13.5603C142.69 13.5803 142.7 13.6103 142.71 13.6503C142.71 13.6603 142.71 13.6703 142.72 13.6903C142.72 13.7103 142.72 13.7303 142.72 13.7503C142.76 14.0003 142.79 14.2303 142.82 14.4303C142.84 14.6303 142.87 14.8203 142.89 15.0103C142.9 15.1303 142.91 15.2403 142.92 15.3603C142.92 15.4703 142.94 15.6003 142.94 15.7203C142.94 15.8003 142.94 15.8803 142.95 15.9603C142.96 16.0403 142.96 16.1303 142.97 16.2203C142.98 16.2403 143 16.2603 143.03 16.2903C143.06 16.3103 143.09 16.3403 143.13 16.3603C143.22 16.4103 143.33 16.4603 143.48 16.5103C143.62 16.5603 143.77 16.6103 143.92 16.6503C144.03 16.6803 144.14 16.7003 144.25 16.7203C144.36 16.7303 144.46 16.7403 144.54 16.7603L144.69 16.7403C144.78 16.7403 144.86 16.7303 144.92 16.7103C144.98 16.6903 145.02 16.6603 145.03 16.6203C144.73 14.6703 144.46 13.0803 144.24 11.8703C144.02 10.6503 143.81 9.70027 143.61 9.01027C143.38 8.21027 143.12 7.69027 142.87 7.44027C142.61 7.19027 142.28 7.05027 141.88 7.03027H141.81H141.66C141.58 7.03027 141.52 7.04027 141.48 7.06027C141.44 7.08027 141.41 7.11027 141.39 7.13027C141.38 7.14027 141.37 7.15027 141.37 7.15027V7.18027C141.37 7.19027 141.37 7.20027 141.38 7.21027C141.38 7.22027 141.39 7.24027 141.4 7.25027C141.41 7.26027 141.41 7.27027 141.42 7.28027C141.43 7.29027 141.43 7.30027 141.43 7.31027L141.66 8.00027C141.6 7.98027 141.55 7.97027 141.5 7.96027C141.45 7.95027 141.4 7.95027 141.35 7.95027H141.2C141.11 7.95027 141.02 7.97027 140.94 8.03027C140.85 8.09027 140.77 8.17027 140.69 8.29027C140.53 8.53027 140.37 8.92027 140.2 9.46027C140.03 10.0103 139.82 10.7703 139.57 11.7403C139.52 12.0203 139.44 12.1903 139.34 12.2603C139.24 12.3303 139.12 12.3803 138.99 12.4103C138.89 12.4403 138.79 12.4803 138.68 12.5103C138.58 12.5503 138.46 12.6303 138.35 12.7603C138.39 12.9103 138.44 13.0403 138.5 13.1703C138.56 13.2903 138.61 13.4003 138.66 13.4903C138.72 13.5903 138.78 13.6703 138.84 13.7403C138.91 13.7903 138.96 13.8403 139 13.8703ZM141.43 12.0003C141.44 11.8603 141.46 11.7203 141.48 11.5703C141.5 11.4303 141.54 11.2703 141.58 11.1103C141.64 10.8703 141.71 10.6503 141.79 10.4303C141.87 10.2103 141.97 10.0103 142.06 9.84027C142.06 9.85027 142.07 9.85027 142.08 9.85027V9.88027C142.2 10.4103 142.29 10.8803 142.36 11.2703C142.43 11.6703 142.47 11.9503 142.5 12.1403H141.58C141.52 12.1403 141.48 12.1303 141.46 12.1103C141.44 12.0903 141.43 12.0803 141.43 12.0803V12.0003V12.0003Z" fill="#003DA5"/>
<path d="M55.61 23.42C55.61 23.42 56.01 21.02 54.79 19.29H53.04C53.04 19.29 52.66 17.93 51.44 16.53H53.72C53.72 16.53 52.4 14.54 51.03 14.54C50.06 14.54 50.09 14.47 50.09 14.47L48.67 12.1H50.66C50.66 12.1 50.3 10.97 48.5 10.42C46.69 9.87004 39.43 9.37004 39.43 9.37004C39.43 9.37004 39.47 8.44004 40 7.97004C40 7.97004 41.3 7.87004 41.3 7.35004C41.3 6.84004 39.79 7.16004 39.31 7.28004C38.83 7.39004 38.46 7.65004 39.05 7.94004C39.05 7.94004 37.98 8.23004 36.84 9.56004C36.84 9.56004 32.97 10.19 31.57 10.96C30.17 11.73 29.62 12.21 29.62 12.58C29.62 12.95 30.53 12.89 30.53 12.89V13.99C30.53 13.99 27.23 14.49 25.49 15.12C23.76 15.75 23.47 16.23 23.73 16.8L20.17 19.24L0 18.71L6.36 25.48C6.36 25.48 7.58 27.25 10.15 27.25C12.73 27.25 27.35 27.2 33.07 26.81C39.07 26.4 56.98 24.05 56.98 24.05L55.61 23.42ZM30.93 12.89C30.9 12.52 31.03 12.06 33.51 11.17C35.99 10.29 38.59 10.36 41.1 10.51C43.6 10.66 46.39 11.86 46.67 12.52C47.01 13.34 47.67 14.7 47.67 14.7H47.35C43.31 14.01 39.06 13.72 36.6 13.72C34.14 13.72 30.93 14.06 30.93 14.06C30.93 14.06 30.95 13.26 30.93 12.89ZM20.79 19.37C20.79 19.37 23.89 17.16 24.21 16.94C24.53 16.72 25.18 16.47 26.9 16.05C28.63 15.63 32.19 15.36 33.96 15.32C35.73 15.27 38.69 15.32 41.65 15.54C44.61 15.76 46.31 16.13 47.11 16.35C47.91 16.57 49.25 16.99 49.61 17.7C49.97 18.41 50.36 19.42 50.36 19.42L20.79 19.37Z" fill="#003DA5"/>
<path d="M56.9505 24.0303C56.9505 24.0303 59.1305 25.0603 64.0005 24.9903C64.0005 24.9903 54.0305 26.7803 33.5605 26.5903C33.5705 26.5903 46.9105 26.7603 56.9505 24.0303Z" fill="#003DA5"/>
<path d="M60.8594 23.7799C60.8594 23.7799 58.3094 24.0099 55.6094 23.4199C55.6094 23.4199 56.0394 24.7199 60.8594 23.7799Z" fill="#003DA5"/>
<path d="M148.89 22.55C148.89 22.55 140.56 23.99 135.38 24.59C130.21 25.19 126.57 25.49 120.76 25.37C114.96 25.25 106.07 25.01 102.04 24.77C98.0101 24.53 92.5201 24.41 88.1801 24.41C83.8301 24.41 78.7401 24.59 75.7001 24.83C72.6601 25.07 62.2301 26.04 61.8301 26.16C61.8301 26.16 68.1901 25.98 73.4101 25.8C78.6201 25.62 82.6901 25.56 86.4401 25.5C90.1901 25.44 100.42 25.92 104.29 26.1C108.16 26.28 110.65 26.4 114.44 26.46C118.23 26.52 121.82 26.52 124.27 26.52C126.72 26.52 136.2 25.5 138.06 25.08C139.91 24.66 149.03 22.54 149.03 22.54" fill="#003DA5"/>
<path d="M144.33 20.3296C144.33 20.3296 136.82 21.5896 132.15 22.1196C127.49 22.6496 124.21 22.9096 118.97 22.7996C113.74 22.6996 105.73 22.4896 102.1 22.2696C98.4696 22.0596 93.5196 21.9496 89.5996 21.9496C85.6796 21.9496 81.0896 22.1096 78.3496 22.3196C75.6096 22.5296 66.2096 23.3796 65.8496 23.4796C65.8496 23.4796 71.5796 23.3196 76.2896 23.1596C80.9896 22.9996 84.6596 22.9496 88.0396 22.8996C91.4196 22.8496 100.64 23.2696 104.13 23.4296C107.62 23.5896 109.87 23.6896 113.28 23.7496C116.7 23.7996 119.94 23.7996 122.15 23.7996C124.36 23.7996 132.9 22.9096 134.58 22.5396C136.25 22.1696 144.47 20.3096 144.47 20.3096" fill="#003DA5"/>
</g>
<defs>
<clipPath id="clip0_86_82">
<rect width="149" height="34" fill="white"/>
</clipPath>
</defs>
</svg>
